<svg width="15" height="30" viewBox="0 0 15 30" fill="none" xmlns="http://www.w3.org/2000/svg">
<path d="M13 7.00001V22.3333C13 25.28 10.6133 27.6667 7.66665 27.6667C4.71998 27.6667 2.33331 25.28 2.33331 22.3333V5.66668C2.33331 3.82668 3.82665 2.33334 5.66665 2.33334C7.50665 2.33334 8.99998 3.82668 8.99998 5.66668V19.6667C8.99998 20.4 8.39998 21 7.66665 21C6.93331 21 6.33331 20.4 6.33331 19.6667V7.00001H4.33331V19.6667C4.33331 21.5067 5.82665 23 7.66665 23C9.50665 23 11 21.5067 11 19.6667V5.66668C11 2.72001 8.61331 0.333344 5.66665 0.333344C2.71998 0.333344 0.333313 2.72001 0.333313 5.66668V22.3333C0.333313 26.3867 3.61331 29.6667 7.66665 29.6667C11.72 29.6667 15 26.3867 15 22.3333V7.00001H13Z" fill="#333333"/>
</svg>
