<svg width="96" height="96" viewBox="0 0 96 96" fill="none" xmlns="http://www.w3.org/2000/svg">
<path d="M48 96C74.5097 96 96 74.5097 96 48C96 21.4903 74.5097 0 48 0C21.4903 0 0 21.4903 0 48C0 74.5097 21.4903 96 48 96Z" fill="#646464"/>
<path d="M47.9998 72.0141C42.411 72.0141 37.3404 69.6159 33.5992 65.7397C33.5964 68.0627 33.512 71.4155 32.896 73.8619C33.3 74.1089 33.6136 74.5143 33.6748 75.0187C34.4732 81.5155 40.631 86.4141 47.9998 86.4141C55.367 86.4141 61.5248 81.5149 62.3248 75.0187C62.3868 74.5137 62.6936 74.1089 63.1038 73.8627C62.4878 71.4161 62.4032 68.0629 62.4004 65.7397C58.6592 69.6159 53.5886 72.0141 47.9998 72.0141Z" fill="white"/>
<path d="M62.0878 66.0349C58.378 69.7303 53.4394 72.0141 47.9998 72.0141C42.411 72.0141 37.3404 69.6159 33.5992 65.7397C33.5964 68.0627 33.512 71.4155 32.896 73.8619C33.3 74.1089 33.6136 74.5143 33.6748 75.0187C34.0278 77.8905 35.4304 80.4475 37.5194 82.4095C47.153 81.0531 58.0872 71.5405 62.0878 66.0349Z" fill="#D7DBE0"/>
<path d="M62.4002 32.0142H35.2002C30.7892 32.0142 27.2002 35.6032 27.2002 40.0142V49.6142C27.2002 61.9658 36.5314 72.0142 48.0002 72.0142C59.469 72.0142 68.8002 61.9658 68.8002 49.6142V38.4142C68.8002 34.8854 65.9298 32.0142 62.4002 32.0142Z" fill="white"/>
<path d="M59.1999 14.4141H38.3999C35.3905 14.4141 32.8609 16.5017 32.1795 19.3039C26.6717 20.0041 22.3999 24.7197 22.3999 30.4141V38.4141C22.3999 42.5375 24.1503 46.3843 27.1999 49.1181V40.0141C27.1999 35.6031 30.7889 32.0141 35.1999 32.0141H62.3999C65.9295 32.0141 68.7999 34.8851 68.7999 38.4141V49.1163C71.8501 46.3829 73.5999 42.5365 73.5999 38.4141V28.8141C73.5999 20.8743 67.1405 14.4141 59.1999 14.4141Z" fill="#BCBCBC"/>
<path d="M12.3262 80.1087C21.1122 89.8637 33.838 95.9999 47.9998 95.9999C62.1616 95.9999 74.8874 89.8637 83.6734 80.1087C82.1414 78.0375 79.981 76.3547 77.203 75.5769C77.139 75.5589 77.0748 75.5449 77.0092 75.5355L64.2374 73.6191C64.1592 73.6073 63.992 73.6011 63.9124 73.6011C63.1046 73.6011 62.4234 74.2035 62.3248 75.0057C61.5248 81.5017 55.367 86.4011 47.9998 86.4011C40.631 86.4011 34.4732 81.5027 33.6748 75.0057C33.5748 74.1799 32.831 73.5589 32.0466 73.6017C31.9528 73.5963 31.8606 73.6041 31.7622 73.6189L18.9904 75.5353C18.9248 75.5447 18.8608 75.5587 18.7966 75.5767C16.0186 76.3549 13.8582 78.0375 12.3262 80.1087Z" fill="#BCBCBC"/>
</svg>
