<svg width="12" height="12" viewBox="0 0 12 12" fill="none" xmlns="http://www.w3.org/2000/svg">
<g clip-path="url(#clip0_2373_35402)">
<g clip-path="url(#clip1_2373_35402)">
<path d="M9.6 2.39988H8.1735L7.35 1.49988H4.65L3.8265 2.39988H2.4C1.905 2.39988 1.5 2.80488 1.5 3.29988V8.69988C1.5 9.19488 1.905 9.59988 2.4 9.59988H9.6C10.095 9.59988 10.5 9.19488 10.5 8.69988V3.29988C10.5 2.80488 10.095 2.39988 9.6 2.39988ZM9.6 8.69988H2.4V3.29988H4.2225L5.046 2.39988H6.954L7.7775 3.29988H9.6V8.69988ZM6 3.74988C4.758 3.74988 3.75 4.75788 3.75 5.99988C3.75 7.24188 4.758 8.24988 6 8.24988C7.242 8.24988 8.25 7.24188 8.25 5.99988C8.25 4.75788 7.242 3.74988 6 3.74988ZM6 7.34988C5.2575 7.34988 4.65 6.74238 4.65 5.99988C4.65 5.25738 5.2575 4.64988 6 4.64988C6.7425 4.64988 7.35 5.25738 7.35 5.99988C7.35 6.74238 6.7425 7.34988 6 7.34988Z" fill="#333333"/>
</g>
</g>
<defs>
<clipPath id="clip0_2373_35402">
<rect width="10.8" height="10.8" fill="white" transform="translate(0.600098 0.599976)"/>
</clipPath>
<clipPath id="clip1_2373_35402">
<rect width="10.8" height="10.8" fill="white" transform="translate(0.600098 0.599976)"/>
</clipPath>
</defs>
</svg>
