<svg width="24" height="16" viewBox="0 0 24 16" fill="none" xmlns="http://www.w3.org/2000/svg">
<path fill-rule="evenodd" clip-rule="evenodd" d="M9.44021 8.0333V10.2111H14.5344V8.0333H9.44021ZM4.99479 13.1979V14.6291C4.99479 15.0957 4.57303 15.5002 4.05381 15.5002H1.65265C1.13347 15.5002 0.71167 15.0959 0.71167 14.6291V9.02897C0.71167 8.46893 1.06855 7.97112 1.58774 7.81563C1.62012 7.5045 1.68502 7.19338 1.78244 6.91341L0.938741 6.78895C0.322266 6.69568 -0.0671235 6.1667 -0.00224232 5.60666C0.0950384 5.04661 0.646741 4.64222 1.23084 4.7355L2.98298 4.9844L4.73511 1.49985C5.09199 0.690904 5.74098 0.286513 6.45488 0.130859H17.5196C18.2335 0.286362 18.8825 0.690904 19.2394 1.49985L20.9915 4.9844L22.7437 4.7355C23.3278 4.64223 23.8793 5.04663 23.9767 5.60666C24.074 6.1667 23.6522 6.69554 23.0682 6.78895L22.1921 6.91341C22.3219 7.19336 22.3868 7.50449 22.3868 7.81563C22.906 7.97114 23.2954 8.46896 23.2954 9.02897C23.2954 10.8956 23.263 12.7625 23.263 14.6291C23.263 15.0957 22.8412 15.5002 22.322 15.5002H19.9209C19.4017 15.5002 18.9799 15.0959 18.9799 14.6291V13.1979H4.99479ZM6.81184 1.43764C6.48734 1.46869 6.22774 1.65537 6.00065 1.99769C5.44906 3.08657 4.92987 4.26887 4.37831 5.42016C9.47255 6.16687 14.5024 6.16687 19.5966 5.42016C19.0774 4.26903 18.5582 3.08674 17.9743 1.99769C17.7472 1.6555 17.4876 1.46881 17.1631 1.43764H6.81184ZM21.4135 7.90882H16.4813C16.1244 7.90882 15.8649 8.18877 15.8649 8.53107V9.4333C15.8649 9.74443 16.1245 10.0244 16.4813 10.0244H21.4135V7.90882ZM2.56099 7.90882H7.49319C7.85007 7.90882 8.14218 8.18877 8.14218 8.53107V9.4333C8.14218 9.74443 7.8502 10.0244 7.49319 10.0244H2.56099V7.90882Z" fill="#F1AE1D"/>
</svg>
