<svg width="24" height="24" viewBox="0 0 24 24" fill="none" xmlns="http://www.w3.org/2000/svg">
<g clip-path="url(#clip0_4317_132200)">
<path fill-rule="evenodd" clip-rule="evenodd" d="M9.43997 12.5331V14.7109H14.5342V12.5331H9.43997ZM4.99454 17.6976V19.1288C4.99454 19.5955 4.57278 20 4.05356 20H1.65241C1.13322 20 0.711426 19.5956 0.711426 19.1288V13.5287C0.711426 12.9687 1.06831 12.4709 1.58749 12.3154C1.61988 12.0043 1.68477 11.6931 1.78219 11.4132L0.938496 11.2887C0.322022 11.1954 -0.0673677 10.6665 -0.00248646 10.1064C0.0947942 9.54637 0.646497 9.14198 1.2306 9.23526L2.98273 9.48416L4.73487 5.99961C5.09175 5.19066 5.74073 4.78627 6.45463 4.63062H17.5194C18.2333 4.78612 18.8823 5.19066 19.2391 5.99961L20.9913 9.48416L22.7434 9.23526C23.3275 9.14198 23.8791 9.54639 23.9765 10.1064C24.0738 10.6665 23.652 11.1953 23.0679 11.2887L22.1919 11.4132C22.3217 11.6931 22.3865 12.0042 22.3865 12.3154C22.9057 12.4709 23.2951 12.9687 23.2951 13.5287C23.2951 15.3954 23.2627 17.2622 23.2627 19.1288C23.2627 19.5955 22.841 20 22.3218 20H19.9206C19.4014 20 18.9796 19.5956 18.9796 19.1288V17.6976H4.99454ZM6.81159 5.9374C6.4871 5.96845 6.22749 6.15513 6.00041 6.49744C5.44882 7.58633 4.92963 8.76863 4.37807 9.91992C9.47231 10.6666 14.5021 10.6666 19.5964 9.91992C19.0772 8.76879 18.558 7.58649 17.974 6.49744C17.747 6.15526 17.4874 5.96857 17.1629 5.9374H6.81159ZM21.4133 12.4086H16.4811C16.1242 12.4086 15.8646 12.6885 15.8646 13.0308V13.9331C15.8646 14.2442 16.1242 14.5241 16.4811 14.5241H21.4133V12.4086ZM2.56075 12.4086H7.49295C7.84983 12.4086 8.14193 12.6885 8.14193 13.0308V13.9331C8.14193 14.2442 7.84995 14.5241 7.49295 14.5241H2.56075V12.4086Z" fill="#333333"/>
</g>
<defs>
<clipPath id="clip0_4317_132200">
<rect width="24" height="24" fill="white"/>
</clipPath>
</defs>
</svg>
