<svg width="24" height="24" viewBox="0 0 24 24" fill="none" xmlns="http://www.w3.org/2000/svg">
<path d="M21.8609 0.785706H2.13896H2.13914C1.572 0.78645 1.02829 1.01208 0.627238 1.41294C0.226195 1.81399 0.000761905 2.35771 0 2.92485V15.2025C0.0011161 15.7692 0.226747 16.3124 0.627809 16.7129C1.02885 17.1134 1.57238 17.3385 2.13914 17.3388H3.6899V22.1236C3.68916 22.427 3.80914 22.7181 4.02305 22.9329C4.23697 23.148 4.48252 23.2314 4.78571 23.2321C5.0891 23.2327 5.42539 23.1506 5.64043 22.9367L11.2728 17.339H21.8609C22.4277 17.3387 22.9712 17.1136 23.3722 16.7131C23.7733 16.3126 23.9989 15.7695 24.0001 15.2027V2.92504C23.9993 2.3579 23.7739 1.81419 23.3728 1.41314C22.9718 1.01228 22.4281 0.786663 21.8609 0.785901L21.8609 0.785706ZM22.1334 15.2024C22.1324 15.3521 22.0106 15.4726 21.8609 15.4719H10.5032L5.375 20.875L5.55658 15.4719H2.13915C1.98941 15.4726 1.86757 15.3521 1.86664 15.2024V2.92475C1.86682 2.77446 1.98866 2.65243 2.13915 2.65243H21.8611H21.8609C22.0114 2.65243 22.1332 2.77445 22.1334 2.92475L22.1334 15.2024Z" fill="#333333"/>
</svg>
