<svg width="24" height="24" viewBox="0 0 24 24" fill="none" xmlns="http://www.w3.org/2000/svg">
<path d="M23.5544 8.88283L23.0383 7.99049C22.9525 7.84242 22.9309 7.66577 22.9787 7.5015C23.0265 7.33725 23.1397 7.1996 23.2916 7.12044C23.3501 7.09037 23.4036 7.05137 23.4502 7.0051C23.6069 6.84547 23.6669 6.61478 23.6079 6.39931C23.5489 6.18366 23.3798 6.01544 23.1635 5.95712L10.0367 2.43604L8.35779 3.35778L10.2412 3.39612H10.2413C10.6342 3.40405 11.0086 3.56352 11.2861 3.84098L20.8888 13.4375C21.0265 13.575 21.1451 13.7303 21.2412 13.8992C21.2665 13.7807 21.3257 13.6722 21.4117 13.5864C21.4504 13.5474 21.4945 13.5137 21.5422 13.4863L22.4602 12.9576C22.6049 12.8745 22.7104 12.7372 22.7535 12.5764C22.7967 12.4155 22.774 12.2439 22.6904 12.0998L22.1393 11.1482C22.056 11.0039 22.0333 10.8325 22.0767 10.6717C22.12 10.511 22.2255 10.3738 22.37 10.2905L23.3241 9.74091C23.4689 9.65779 23.5746 9.52063 23.6177 9.35968C23.6609 9.19873 23.638 9.0272 23.5544 8.88292L23.5544 8.88283Z" fill="#333333"/>
<path d="M10.3797 5.08235C10.2707 4.97362 10.1234 4.91132 9.96914 4.90884L6.22324 4.83018C6.06104 4.8272 5.90481 4.89099 5.79114 5.00633L3.34459 7.4439H3.34442C3.23061 7.55841 3.16781 7.71375 3.17046 7.87501L3.18952 8.84566L3.21669 10.1417V10.1429C1.57336 11.3346 0.547985 13.1948 0.419431 15.2176C0.360948 15.8267 0.494481 16.4389 0.801478 16.9687C1.10848 17.4985 1.57369 17.9196 2.13201 18.1729C2.52118 18.3388 2.94036 18.4227 3.36347 18.4198C4.2823 18.4198 5.30984 18.0592 6.44604 17.3379L5.45926 16.3537C4.31759 17.018 3.3552 17.2212 2.6648 16.9257C2.36941 16.7859 2.12472 16.5577 1.96499 16.2732C1.80528 15.9885 1.73818 15.6613 1.77331 15.3369C1.82897 14.608 2.01884 13.8958 2.33328 13.2356C2.58063 12.724 2.90819 12.2552 3.30331 11.8463L3.30364 11.8473C3.61296 11.5246 3.95756 11.2379 4.33118 10.9922C4.35835 10.9742 4.38568 10.958 4.41302 10.9404C4.50182 10.8834 4.59095 10.8281 4.67992 10.7765C4.71306 10.7573 4.74619 10.7395 4.77933 10.721C4.86548 10.6731 4.9513 10.6265 5.03679 10.5833C5.06479 10.5691 5.09262 10.5556 5.12062 10.5419C5.21688 10.4948 5.31247 10.4498 5.40674 10.4083C5.4195 10.4027 5.43226 10.3971 5.44485 10.3917C5.67216 10.2933 5.89235 10.2104 6.09809 10.1416L6.0971 10.1401L6.09727 10.1403C6.36334 10.0504 6.6337 9.97407 6.90744 9.91144C7.08189 9.87096 7.23299 9.76305 7.32759 9.61135C7.42218 9.45965 7.45234 9.27672 7.41158 9.10274C7.37083 8.92889 7.26231 8.77835 7.11005 8.68416C6.95797 8.59014 6.77456 8.56023 6.60012 8.60105C6.38243 8.65343 6.12531 8.72349 5.84284 8.81521C5.91326 8.49182 6.07545 8.19555 6.31023 7.96186C6.5165 7.75663 6.7705 7.60559 7.04966 7.52263C7.54385 7.37985 8.07601 7.46397 8.50179 7.75199C8.9274 8.04002 9.20258 8.5022 9.25229 9.01285C9.30216 9.52362 9.1214 10.0299 8.75924 10.3943C8.39707 10.7587 7.89109 10.9434 7.37866 10.8983C7.30344 10.9274 7.22623 10.951 7.14754 10.9687C6.48153 11.1206 5.06515 11.5517 4.04593 12.6417L12.78 21.3532H12.7798C12.9139 21.4877 13.0961 21.5636 13.2863 21.5639C13.4767 21.5641 13.6591 21.4889 13.7936 21.3547C13.928 21.2205 14.0035 21.0386 14.0032 20.8489C14.0032 20.682 14.0698 20.5222 14.1881 20.4042C14.3062 20.2862 14.4666 20.2199 14.6337 20.2198H15.6939C15.8607 20.2198 16.0208 20.154 16.1391 20.0365C16.2572 19.9192 16.324 19.7599 16.3246 19.5935V18.4926C16.3243 18.3264 16.3902 18.1669 16.5082 18.0494C16.626 17.9317 16.7859 17.866 16.9525 17.8663H18.0563C18.2231 17.8656 18.3828 17.799 18.5004 17.6812C18.6182 17.5632 18.6842 17.4036 18.6842 17.2374V16.2071C18.684 16.036 18.7538 15.8724 18.8775 15.7541C19.0013 15.6358 19.1681 15.5732 19.3393 15.5806C19.5091 15.5877 19.6746 15.5261 19.7982 15.4098C19.9218 15.2934 19.993 15.1321 19.9957 14.9628C19.9983 14.7932 19.9322 14.6298 19.8124 14.5097L10.3797 5.08235ZM8.64805 14.3713C8.50723 14.2325 8.42787 14.043 8.42787 13.8453C8.42787 13.6477 8.50723 13.4583 8.64805 13.3193L11.6817 10.2935C11.8215 10.1539 12.0111 10.0752 12.2089 10.0752C12.4067 10.0752 12.5966 10.1535 12.7363 10.2932C12.8761 10.4328 12.9543 10.6222 12.954 10.8195C12.9553 11.0161 12.8769 11.2048 12.7366 11.3428L9.7001 14.3715V14.3713C9.56076 14.5106 9.3714 14.5889 9.17409 14.5889C8.97679 14.5889 8.78757 14.5106 8.64809 14.3713L8.64805 14.3713ZM15.3705 13.9727L12.3368 17.0014C12.1483 17.1888 11.8739 17.2618 11.6168 17.1931C11.3598 17.1242 11.159 16.9239 11.0899 16.6674C11.0208 16.4111 11.0941 16.1375 11.2821 15.9494L14.3185 12.9208C14.4583 12.7811 14.648 12.7026 14.8458 12.7026C15.0436 12.7028 15.2333 12.7813 15.373 12.9209C15.5127 13.0607 15.591 13.2501 15.5905 13.4474C15.59 13.6447 15.5108 13.8337 15.3705 13.9727L15.3705 13.9727Z" fill="#333333"/>
</svg>
