<svg width="19" height="18" viewBox="0 0 19 18" fill="none" xmlns="http://www.w3.org/2000/svg">
<path d="M4.88088 9.01613C5.18261 9.01613 5.42722 8.77152 5.42722 8.4698C5.42722 8.16806 5.1826 7.92346 4.88088 7.92346H0.546335C0.244601 7.92346 0 8.16808 0 8.4698C0 8.77153 0.244616 9.01613 0.546335 9.01613H4.88088Z" fill="#333333"/>
<path d="M17.752 8.61583L15.9595 7.51983L13.6507 4.19627C13.5486 4.04929 13.381 3.96152 13.202 3.96167H3.56489C3.42 3.96152 3.2811 4.01909 3.17852 4.12166C3.07609 4.22408 3.01853 4.36314 3.01853 4.50803V6.02164H2.273C1.97126 6.02164 1.72666 6.26626 1.72666 6.56797C1.72666 6.86971 1.97128 7.11431 2.273 7.11431H5.79977C6.1015 7.11431 6.34611 6.86969 6.34611 6.56797C6.34611 6.26624 6.10149 6.02164 5.79977 6.02164H4.11123V5.05437H11.0942V7.92595C11.0942 8.07083 11.1518 8.20989 11.2542 8.31232C11.3566 8.41475 11.4957 8.47231 11.6406 8.47231H15.4224L16.9205 9.38829V11.8976H16.3859C16.2783 11.3729 15.9431 10.9234 15.4709 10.6706C14.9987 10.4179 14.4386 10.3883 13.9423 10.5897C13.4462 10.7911 13.0652 11.2029 12.9028 11.7132H8.68083C8.51755 11.1996 8.13312 10.7862 7.63283 10.5861C7.13254 10.3861 6.56883 10.4205 6.09664 10.6799C5.6243 10.9393 5.29297 11.3964 5.19337 11.926C5.1826 11.9254 5.17228 11.9227 5.16122 11.9227H4.11096V10.8448C4.39191 10.7997 4.59108 10.5461 4.56803 10.2624C4.54516 9.97879 4.30801 9.7605 4.02346 9.76092H1.12049C0.818758 9.76092 0.574158 10.0055 0.574158 10.3073C0.574158 10.609 0.818774 10.8536 1.12049 10.8536H3.01822V12.469C3.01822 12.6139 3.07578 12.753 3.1782 12.8554C3.28078 12.958 3.41968 13.0154 3.56458 13.0154H5.16117C5.2141 13.0146 5.26643 13.0061 5.31682 12.9901C5.51554 13.4385 5.88846 13.7865 6.34944 13.9538C6.81041 14.1209 7.31969 14.0931 7.75973 13.8765C8.19962 13.6598 8.53232 13.2731 8.68077 12.8059H12.9028C13.0512 13.2731 13.3839 13.6598 13.8238 13.8765C14.2637 14.0931 14.773 14.1209 15.234 13.9538C15.6949 13.7865 16.0678 13.4385 16.2666 12.9903H17.4668C17.6116 12.9903 17.7507 12.9328 17.8531 12.8303C17.9557 12.7278 18.0131 12.5888 18.0131 12.4439V9.08206C18.0131 8.89187 17.9141 8.71529 17.7519 8.61584L17.752 8.61583ZM12.1868 5.05437H12.9162L14.5314 7.37958H12.1868V5.05437ZM6.96344 12.969C6.77519 12.969 6.59472 12.8943 6.46181 12.7612C6.32873 12.6281 6.25397 12.4476 6.25397 12.2596C6.25397 12.0715 6.32873 11.891 6.46181 11.7579C6.59488 11.6249 6.77521 11.5502 6.96344 11.5502C7.15153 11.5502 7.332 11.6249 7.46506 11.7579C7.59799 11.891 7.67275 12.0715 7.67275 12.2596C7.6726 12.4477 7.59769 12.628 7.46476 12.7609C7.33169 12.894 7.15137 12.9687 6.9634 12.969L6.96344 12.969ZM14.6201 12.969C14.4318 12.969 14.2515 12.8943 14.1185 12.7612C13.9854 12.6281 13.9106 12.4476 13.9106 12.2596C13.9106 12.0715 13.9854 11.891 14.1185 11.7579C14.2515 11.6249 14.4319 11.5502 14.6201 11.5502C14.8082 11.5502 14.9887 11.6249 15.1217 11.7579C15.2546 11.891 15.3294 12.0715 15.3294 12.2596C15.3292 12.4477 15.2543 12.628 15.1214 12.7609C14.9883 12.894 14.808 12.9687 14.6201 12.969L14.6201 12.969Z" fill="#333333"/>
</svg>
