<svg width="24" height="24" viewBox="0 0 24 24" fill="none" xmlns="http://www.w3.org/2000/svg">
<path fill-rule="evenodd" clip-rule="evenodd" d="M5.4825 1.7081C3.98676 1.7081 2.77416 2.92071 2.77416 4.41663V19.5834C2.77416 21.0793 3.98676 22.2919 5.4825 22.2919H9.81588V23.3752H5.4825C3.38842 23.3752 1.69067 21.6776 1.69067 19.5834V4.41663C1.69067 2.32241 3.38842 0.624802 5.4825 0.624802H16.3159C18.4102 0.624802 20.1078 2.32237 20.1078 4.41663V10.9168H19.0245V4.41663C19.0245 2.92071 17.8119 1.7081 16.3159 1.7081H5.4825Z" fill="black"/>
<path fill-rule="evenodd" clip-rule="evenodd" d="M15.2366 7.13657H5.20776V6.05708H15.2366V7.13657Z" fill="black"/>
<path fill-rule="evenodd" clip-rule="evenodd" d="M15.2366 12.534H5.20776V11.4545H15.2366V12.534Z" fill="black"/>
<path fill-rule="evenodd" clip-rule="evenodd" d="M13.4955 17.9663H5.20776V16.8868H13.4955V17.9663Z" fill="black"/>
<path d="M18.3875 16.4375H19.3625V17.4125H18.3875V16.4375ZM18.3875 18.3875H19.3625V21.3125H18.3875V18.3875ZM18.875 14C16.184 14 14 16.184 14 18.875C14 21.566 16.184 23.75 18.875 23.75C21.566 23.75 23.75 21.566 23.75 18.875C23.75 16.184 21.566 14 18.875 14ZM18.875 22.775C16.7251 22.775 14.975 21.0249 14.975 18.875C14.975 16.7251 16.7251 14.975 18.875 14.975C21.0249 14.975 22.775 16.7251 22.775 18.875C22.775 21.0249 21.0249 22.775 18.875 22.775Z" fill="#333333"/>
</svg>
