<svg width="24" height="24" viewBox="0 0 24 24" fill="none" xmlns="http://www.w3.org/2000/svg">
<path fill-rule="evenodd" clip-rule="evenodd" d="M5.4825 1.70811C3.98676 1.70811 2.77416 2.92071 2.77416 4.41663V19.5834C2.77416 21.0793 3.98676 22.2919 5.4825 22.2919H9.81588V23.3752H5.4825C3.38842 23.3752 1.69067 21.6776 1.69067 19.5834V4.41663C1.69067 2.32242 3.38842 0.624809 5.4825 0.624809H16.3159C18.4102 0.624809 20.1078 2.32237 20.1078 4.41663V10.9168H19.0245V4.41663C19.0245 2.92071 17.8119 1.70811 16.3159 1.70811H5.4825Z" fill="#009B59"/>
<path fill-rule="evenodd" clip-rule="evenodd" d="M15.2366 7.13658H5.20776V6.05709H15.2366V7.13658Z" fill="#009B59"/>
<path fill-rule="evenodd" clip-rule="evenodd" d="M15.2366 12.534H5.20776V11.4545H15.2366V12.534Z" fill="#009B59"/>
<path fill-rule="evenodd" clip-rule="evenodd" d="M12.6667 17.7466H5.33337V16.6666H12.6667V17.7466Z" fill="#009B59"/>
<path d="M17.6667 20L16.3334 18.6667L15.7 19.3971L17.6667 21.3333L21.3334 17.6667L20.603 17.0273L17.6667 20Z" fill="#009B59"/>
<rect x="13.8334" y="14.5" width="9" height="9" rx="4.5" stroke="#009B59"/>
</svg>
