<svg width="34" height="41" viewBox="0 0 34 41" fill="none" xmlns="http://www.w3.org/2000/svg">
<path fill-rule="evenodd" clip-rule="evenodd" d="M7.45647 2.02723C4.82976 2.02723 2.70027 4.15924 2.70027 6.78939V33.4557C2.70027 36.0859 4.82976 38.2179 7.45647 38.2179H26.4823C29.109 38.2179 31.2385 36.0859 31.2385 33.4557V12.898L20.381 2.0269L7.45647 2.02723ZM0.797852 6.78939C0.797852 3.10732 3.779 0.122559 7.45647 0.122559H20.7747C21.0269 0.122559 21.269 0.223008 21.4474 0.401581L32.8625 11.8302C33.0409 12.0088 33.1409 12.2512 33.1409 12.5037V33.4557C33.1409 37.1378 30.1597 40.1225 26.4823 40.1225H7.45648C3.77901 40.1225 0.79786 37.1379 0.79786 33.4557L0.797852 6.78939Z" fill="#333333"/>
<path fill-rule="evenodd" clip-rule="evenodd" d="M20.41 0.194984C20.7655 0.0476608 21.1748 0.129295 21.4468 0.401615L32.8619 11.8303C33.1339 12.1026 33.2151 12.5124 33.068 12.8682C32.9205 13.2241 32.5737 13.4559 32.1893 13.4559H26.4817C22.804 13.4559 19.8228 10.4713 19.8228 6.78944V1.07511C19.8228 0.689894 20.0546 0.342635 20.4101 0.195017L20.41 0.194984ZM21.7251 3.37419V6.7894C21.7251 9.41922 23.8546 11.5512 26.4817 11.5512H29.8925L21.7251 3.37419Z" fill="#333333"/>
<path fill-rule="evenodd" clip-rule="evenodd" d="M17.3704 11.5718H9.35938V9.67383H17.3704V11.5718Z" fill="#333333"/>
<path fill-rule="evenodd" clip-rule="evenodd" d="M26.7879 21.0615H9.35938V19.1636H26.7879V21.0615Z" fill="#333333"/>
<path fill-rule="evenodd" clip-rule="evenodd" d="M26.7879 30.6128H9.35938V28.7148H26.7879V30.6128Z" fill="#333333"/>
</svg>
