<svg width="24" height="24" viewBox="0 0 24 24" fill="none" xmlns="http://www.w3.org/2000/svg">
<path d="M19.4128 0.912447L19.4128 0.912563H9.00495C8.48113 0.912563 7.99463 1.14909 7.67119 1.56124L2.56031 8.07375C1.95725 8.84221 1.76009 9.86078 2.03271 10.7988L2.03271 10.7988L4.79613 20.3022C5.10187 21.3536 6.07963 22.0876 7.17454 22.0876H19.5373C20.7321 22.0876 21.7042 21.1156 21.7042 19.9206L21.7044 3.07938C21.7044 1.88438 20.7325 0.912447 19.5375 0.912447H19.4128ZM2.81153 10.5721L2.72746 10.5966L2.81153 10.5721C2.61158 9.88459 2.75623 9.1374 3.19837 8.5741L3.19838 8.57409L8.30926 2.06159C8.30926 2.06158 8.30926 2.06158 8.30926 2.06158C8.47824 1.84629 8.7315 1.72316 9.0051 1.72316H19.5377C20.2852 1.72316 20.8937 2.33154 20.8937 3.07924L20.8936 19.9203C20.8936 20.6681 20.2852 21.2764 19.5375 21.2764H7.17473C6.43865 21.2764 5.78039 20.7823 5.57495 20.0754L5.49088 20.0999L5.57495 20.0754L2.81153 10.5721ZM2.11677 10.7744L2.11677 10.7744L2.11677 10.7744Z" fill="#333333" stroke="#333333" stroke-width="0.175107"/>
<path d="M19.2421 2.59041L19.2418 2.58783H19.168H10.1147C9.80128 2.58783 9.50995 2.72941 9.31644 2.97615L5.0056 8.46872L5.0056 8.46872C4.76717 8.77255 4.67334 9.16423 4.74836 9.5431C4.82337 9.92195 5.05929 10.2484 5.39543 10.4384L5.39544 10.4384L7.07656 11.3886C7.32017 11.5263 7.5967 11.5991 7.87656 11.5991H19.168C19.7723 11.5991 20.2638 11.1076 20.2638 10.5033L20.264 3.68376C20.264 3.10435 19.812 2.62863 19.2421 2.59041ZM5.76748 9.7804L5.76747 9.78039C5.62313 9.69885 5.52201 9.5589 5.4898 9.39627C5.4576 9.23366 5.4978 9.06569 5.6002 8.93529L5.60022 8.93527L9.91106 3.44234C9.91107 3.44233 9.91107 3.44232 9.91108 3.44231C9.96067 3.37919 10.0346 3.34318 10.1149 3.34318H19.1683C19.3557 3.34318 19.5083 3.49583 19.5083 3.68327L19.5082 10.5031C19.5082 10.6905 19.3556 10.8432 19.1681 10.8432H7.87669C7.72696 10.8432 7.57884 10.8042 7.4486 10.7306L7.40844 10.8016L7.44859 10.7306L5.76748 9.7804Z" fill="#333333" stroke="#333333" stroke-width="0.163201"/>
<path d="M18.8898 13.2137H17.3794C17.1796 13.2137 17.0177 13.3756 17.0177 13.5753C17.0177 13.7751 17.1796 13.937 17.3794 13.937H18.8898C19.0896 13.937 19.2515 13.7751 19.2515 13.5753C19.2515 13.3756 19.0896 13.2137 18.8898 13.2137Z" fill="#333333" stroke="#333333" stroke-width="0.0875533"/>
</svg>
