<svg width="85" height="61" viewBox="0 0 85 61" fill="none" xmlns="http://www.w3.org/2000/svg">
<g opacity="0.5">
<path fill-rule="evenodd" clip-rule="evenodd" d="M44.0299 17.4286C44.0299 27.0541 36.2344 34.8571 26.6181 34.8571C17.0019 34.8571 9.20637 27.0541 9.20637 17.4286C9.20637 7.80304 17.0019 0 26.6181 0C36.2344 0 44.0299 7.80304 44.0299 17.4286ZM9.20637 39.2143C4.39824 39.2143 0.500488 43.1201 0.500488 47.9328V48.9785C0.500488 65.0072 52.7358 65.0072 52.7358 48.9785V47.9328C52.7358 43.1201 48.838 39.2143 44.0299 39.2143H9.20637Z" fill="#EBEBEB"/>
</g>
<path d="M83.5114 38.2745L75.2513 30.0071C74.0213 31.9226 72.3929 33.5533 70.4778 34.7859L78.7372 43.0519C80.0554 44.3728 82.1939 44.3728 83.5107 43.0519C84.8289 41.7373 84.8289 39.5947 83.5114 38.2745Z" fill="#EBEBEB"/>
<path d="M75.4997 21.5226C75.4997 14.0599 69.4535 8.00781 61.9987 8.00781C54.5467 8.00781 48.5005 14.0599 48.5005 21.5226C48.5005 28.9831 54.5467 35.0331 61.9987 35.0331C69.4535 35.0331 75.4997 28.9831 75.4997 21.5226ZM61.9987 31.657C56.4177 31.657 51.874 27.1103 51.874 21.5226C51.874 15.9327 56.4177 11.386 61.9987 11.386C67.5839 11.386 72.1234 15.9327 72.1234 21.5226C72.1241 27.1103 67.5839 31.657 61.9987 31.657Z" fill="#EBEBEB"/>
<path d="M57.4001 24.2214L60.1469 21.524L57.43 18.7547L59.3252 16.8926L62.0406 19.6619L64.7874 16.9652L66.5979 18.8117L63.8519 21.5091L66.5751 24.2862L64.6792 26.1476L61.9574 23.3705L59.2121 26.0686L57.4001 24.2214Z" fill="#EBEBEB"/>
</svg>
