<svg width="24" height="24" viewBox="0 0 24 24" fill="none" xmlns="http://www.w3.org/2000/svg">
<path d="M12.2255 0.576891C12.0318 0.584774 11.8508 0.675803 11.729 0.826702C11.729 0.826702 9.76318 3.26404 7.79398 6.23932C6.80919 7.72693 5.82156 9.35043 5.07023 10.8919C4.3191 12.4334 3.78418 13.8742 3.78418 15.1361C3.78418 19.7183 7.51314 23.4474 12.0955 23.4474C14.4101 23.4474 16.3108 22.3705 17.659 20.8678C19.007 19.365 19.8396 17.4438 20.1385 15.6157C20.3773 14.1551 20.0424 12.9412 19.417 11.9398C18.7918 10.9387 17.9176 10.1223 17.0314 9.22661C15.259 7.43533 13.3911 5.38819 12.9216 1.17471C12.8823 0.823738 12.5787 0.562871 12.2258 0.577093L12.2255 0.576891ZM11.8364 2.88036C12.6102 6.47176 14.4833 8.56397 16.0747 10.1726C16.979 11.0865 17.7804 11.8593 18.2758 12.6523C18.7709 13.4453 19.0015 14.2302 18.8105 15.3984C18.5524 16.9772 17.8049 18.6898 16.6572 19.9691C15.5096 21.2484 13.9995 22.1018 12.0954 22.1018C8.24036 22.1018 5.12944 18.9911 5.12944 15.1358C5.12944 14.2884 5.56901 12.9387 6.27962 11.481C6.99001 10.0232 7.95135 8.43842 8.91568 6.98155C10.0043 5.33687 11.0936 3.85747 11.8363 2.88022L11.8364 2.88036Z" fill="#333333"/>
<path d="M12.0005 11.4999C11.8068 11.5078 11.6223 11.849 11.5005 11.9999C11.5005 11.9999 10.6413 13.1641 9.68165 14.6138C9.20192 15.3386 8.71901 16.1311 8.34645 16.8955C7.97389 17.6601 7.69141 18.378 7.69141 19.0935C7.69141 21.4901 9.6486 23.4471 12.0452 23.4471C13.2669 23.4471 14.2841 22.8701 14.9855 22.088C15.6869 21.306 16.1103 20.3262 16.265 19.3804C16.3924 18.6008 16.204 17.9046 15.8689 17.3682C15.5341 16.832 15.094 16.4274 14.6717 16.0004C13.8269 15.1467 12.7165 14.4384 12.5005 12.4999C12.4613 12.149 12.3533 11.4857 12.0005 11.4999ZM11.7736 13.9672C12.237 15.3666 13.0467 16.2711 13.7152 16.9468C14.1557 17.3919 14.523 17.753 14.728 18.0811C14.9329 18.4092 15.017 18.6765 14.9373 19.1637C14.8233 19.8598 14.4853 20.6312 13.9842 21.19C13.483 21.7487 12.8565 22.1019 12.0452 22.1019C10.3757 22.1019 9.03696 20.763 9.03696 19.0937C9.03696 18.7926 9.22427 18.1659 9.55593 17.485C9.88776 16.8043 10.3442 16.0506 10.8035 15.3565C11.1419 14.8452 11.4806 14.3673 11.7736 13.9672Z" fill="#333333"/>
</svg>
