<svg width="24" height="24" viewBox="0 0 24 24" fill="none" xmlns="http://www.w3.org/2000/svg">
<path d="M19.6431 9.32213C19.7123 9.36749 19.7731 9.42702 19.8204 9.49945L21.0128 10.6918C21.4937 11.1727 21.4937 11.9526 21.0128 12.4335C20.8119 12.6343 20.5479 12.7595 20.2653 12.788L19.0366 12.9117L11.1201 20.8282C10.3988 21.5496 9.22911 21.5496 8.50764 20.8282L1.5411 13.8617C0.819632 13.1402 0.819632 11.9707 1.5411 11.2493L10.2494 2.541C10.9707 1.81967 12.1403 1.81967 12.8618 2.541L19.6431 9.32213ZM18.2539 9.67464L11.991 3.41169C11.7506 3.17116 11.3606 3.17116 11.1201 3.41169L4.8927 9.63908L5.90798 10.1468C6.0552 10.2493 6.16565 10.336 6.25564 10.4012C6.70035 10.7231 7.21143 10.1386 7.71121 9.91133L8.45449 9.5733C9.10764 9.31207 9.84145 9.34255 10.4708 9.65722L11.5365 10.1887C11.8832 10.3621 12.1061 10.4284 12.4527 10.255L13.2779 9.69931C13.9713 9.35261 14.7875 9.35261 15.4809 9.69931L16.2917 10.1047C16.6384 10.278 17.0465 10.278 17.3933 10.1047L18.2539 9.67464ZM19.1718 10.5926L17.9439 11.2065C17.2505 11.5532 16.4344 11.5532 15.741 11.2065L14.9302 10.8011C14.5835 10.6277 14.1753 10.6277 13.8286 10.8011L13.0178 11.2065C12.3244 11.5532 11.5082 11.5532 10.8149 11.2065L9.9199 10.759C9.60523 10.6016 9.23841 10.5865 8.9117 10.717L7.37335 11.3325C6.72021 11.5937 5.9864 11.5632 5.35709 11.2486L3.97467 10.5573L2.41198 12.12C2.17158 12.3604 2.17158 12.7503 2.41198 12.9907L9.37851 19.9572C9.61905 20.1976 10.0088 20.1976 10.2494 19.9572L18.4761 11.7305L20.1417 11.5626L19.1718 10.5926ZM19.9212 22.1525C18.2209 22.1525 16.8424 20.7741 16.8424 19.0738C16.8424 17.6999 19.1791 14.7633 19.9212 14.7633C20.6634 14.7633 23 17.6998 23 19.0738C23 20.7741 21.6216 22.1525 19.9212 22.1525ZM19.1232 17.0997C18.4733 17.9166 18.0739 18.6582 18.0739 19.0738C18.0739 20.094 18.901 20.9211 19.9212 20.9211C20.9415 20.9211 21.7685 20.094 21.7685 19.0738C21.7685 18.6582 21.3691 17.9166 20.7192 17.0997C20.4595 16.7733 20.1758 16.4547 19.9222 16.1977C19.6666 16.4547 19.3831 16.7733 19.1232 17.0997Z" fill="#333333"/>
</svg>
