<svg width="18" height="24" viewBox="0 0 18 24" fill="none" xmlns="http://www.w3.org/2000/svg">
<path d="M4.26371 3.56504V2.41022C4.26371 2.21972 4.41699 2.06551 4.60426 2.06551H16.2244C16.4116 2.06551 16.5649 2.21971 16.5649 2.41022V18.9736C16.5649 19.1641 16.4118 19.3183 16.2245 19.3183H16.1775L16.1775 19.3186H15.082V8.56688C15.082 8.56242 15.0816 8.5586 15.0814 8.55613L15.081 8.55228C15.0773 8.41272 15.0224 8.27588 14.9203 8.17261L14.9203 8.17261L10.5229 3.72858C10.5229 3.72858 10.5229 3.72858 10.5229 3.72857C10.522 3.72769 10.5211 3.72689 10.5203 3.7262C10.4206 3.62667 10.2834 3.56504 10.132 3.56504H4.26371ZM10.5217 3.7276C10.5219 3.72778 10.5221 3.72796 10.5223 3.72815L10.5222 3.72806C10.522 3.72791 10.5219 3.72775 10.5217 3.7276ZM16.2245 0.95H4.60436C3.80654 0.95 3.15855 1.60558 3.15855 2.4106V3.56543H1.61662C1.03919 3.56543 0.570605 4.03995 0.570605 4.62197V21.9935C0.570605 22.5756 1.03935 23.05 1.61662 23.05H14.036C14.6134 23.05 15.0822 22.5757 15.0822 21.9935V20.4346H16.2246C17.0225 20.4346 17.6706 19.779 17.6706 18.974V2.4106C17.6706 1.60558 17.0225 0.95 16.2248 0.95H16.2245ZM13.9767 21.9342H1.67552V4.6812H9.57924V7.92541C9.57924 8.58649 10.1116 9.12516 10.7669 9.12516H13.9767L13.9767 21.9342ZM10.6846 7.92536L10.6846 5.47097L13.196 8.00903H10.7669C10.722 8.00903 10.6846 7.97201 10.6846 7.92536Z" fill="black" stroke="black" stroke-width="0.1"/>
</svg>
