<svg width="24" height="24" viewBox="0 0 24 24" fill="none" xmlns="http://www.w3.org/2000/svg">
<path d="M16.0639 6.56787C16.2269 6.56787 16.3849 6.63207 16.5009 6.74811C16.6145 6.86416 16.6812 7.01971 16.6812 7.18514C16.6812 7.3481 16.6145 7.50612 16.5009 7.6197C16.3849 7.73574 16.2269 7.80241 16.0639 7.80241H5.61727C5.45431 7.80241 5.29629 7.73574 5.18024 7.6197C5.0642 7.50612 5 7.3481 5 7.18514C5 7.01971 5.0642 6.86416 5.18024 6.74811C5.29629 6.63207 5.45431 6.56787 5.61727 6.56787H16.0639Z" fill="#333333"/>
<path fill-rule="evenodd" clip-rule="evenodd" d="M15.4466 7.18513C15.4466 6.6049 15.6762 6.04936 16.0861 5.63949C16.4959 5.22962 17.0515 5 17.6292 5C18.2095 5 18.765 5.22962 19.1749 5.63949C19.5847 6.04936 19.8143 6.6049 19.8143 7.18513C19.8143 7.76289 19.5847 8.31843 19.1749 8.7283C18.765 9.13816 18.2095 9.36779 17.6292 9.36779C17.0515 9.36779 16.4959 9.13816 16.0861 8.7283C15.6762 8.31843 15.4466 7.76289 15.4466 7.18513ZM16.6811 7.18513C16.6811 6.93328 16.7799 6.69131 16.9576 6.51354C17.1379 6.33577 17.3774 6.23454 17.6292 6.23454C17.8811 6.23454 18.123 6.33577 18.3008 6.51354C18.4786 6.69131 18.5798 6.93328 18.5798 7.18513C18.5798 7.43697 18.4786 7.67647 18.3008 7.85672C18.123 8.03449 17.8811 8.13325 17.6292 8.13325C17.3774 8.13325 17.1379 8.03449 16.9576 7.85672C16.7799 7.67647 16.6811 7.43697 16.6811 7.18513Z" fill="#333333"/>
<path d="M16.0639 15.9677C16.2269 15.9677 16.3849 16.0343 16.5009 16.1504C16.6145 16.2639 16.6812 16.422 16.6812 16.5849C16.6812 16.7503 16.6145 16.9059 16.5009 17.0219C16.3849 17.138 16.2269 17.2022 16.0639 17.2022H5.61727C5.45431 17.2022 5.29629 17.138 5.18024 17.0219C5.0642 16.9059 5 16.7503 5 16.5849C5 16.422 5.0642 16.2639 5.18024 16.1504C5.29629 16.0343 5.45431 15.9677 5.61727 15.9677H16.0639Z" fill="#333333"/>
<path fill-rule="evenodd" clip-rule="evenodd" d="M15.4466 16.5849C15.4466 16.0071 15.6762 15.4516 16.0861 15.0417C16.4959 14.6318 17.0515 14.4022 17.6292 14.4022C18.2095 14.4022 18.765 14.6318 19.1749 15.0417C19.5847 15.4516 19.8143 16.0071 19.8143 16.5849C19.8143 17.1651 19.5847 17.7207 19.1749 18.1305C18.765 18.5404 18.2095 18.77 17.6292 18.77C17.0515 18.77 16.4959 18.5404 16.0861 18.1305C15.6762 17.7207 15.4466 17.1651 15.4466 16.5849ZM16.6811 16.5849C16.6811 16.333 16.7799 16.0911 16.9576 15.9133C17.1379 15.7355 17.3774 15.6368 17.6292 15.6368C17.8811 15.6368 18.123 15.7355 18.3008 15.9133C18.4786 16.0911 18.5798 16.333 18.5798 16.5849C18.5798 16.8367 18.4786 17.0787 18.3008 17.2565C18.123 17.4342 17.8811 17.5355 17.6292 17.5355C17.3774 17.5355 17.1379 17.4342 16.9576 17.2565C16.7799 17.0787 16.6811 16.8367 16.6811 16.5849Z" fill="#333333"/>
<path d="M7.68141 11.2665C7.84437 11.2665 7.99992 11.3331 8.11597 11.4492C8.23201 11.5652 8.29868 11.7208 8.29868 11.8837C8.29868 12.0492 8.23201 12.2047 8.11597 12.3208C7.99992 12.4368 7.84437 12.501 7.68141 12.501H5.61727C5.45431 12.501 5.29629 12.4368 5.18024 12.3208C5.0642 12.2047 5 12.0492 5 11.8837C5 11.7208 5.0642 11.5652 5.18024 11.4492C5.29629 11.3331 5.45431 11.2665 5.61727 11.2665H7.68141Z" fill="#333333"/>
<path d="M19.1972 11.2665C19.3601 11.2665 19.5181 11.3331 19.6342 11.4492C19.7502 11.5652 19.8144 11.7208 19.8144 11.8837C19.8144 12.0492 19.7502 12.2047 19.6342 12.3208C19.5181 12.4368 19.3601 12.501 19.1972 12.501H12.9307C12.7652 12.501 12.6097 12.4368 12.4936 12.3208C12.3776 12.2047 12.3134 12.0492 12.3134 11.8837C12.3134 11.7208 12.3776 11.5652 12.4936 11.4492C12.6097 11.3331 12.7652 11.2665 12.9307 11.2665H19.1972Z" fill="#333333"/>
<path fill-rule="evenodd" clip-rule="evenodd" d="M9.12817 11.8838C9.12817 11.3061 9.3578 10.7505 9.76766 10.3407C10.1775 9.9308 10.7331 9.70117 11.3133 9.70117C11.8911 9.70117 12.4466 9.9308 12.8565 10.3407C13.2663 10.7505 13.496 11.3061 13.496 11.8838C13.496 12.4641 13.2663 13.0196 12.8565 13.4295C12.4466 13.8393 11.8911 14.069 11.3133 14.069C10.7331 14.069 10.1775 13.8393 9.76766 13.4295C9.3578 13.0196 9.12817 12.4641 9.12817 11.8838ZM10.3627 11.8838C10.3627 11.632 10.4639 11.3925 10.6417 11.2122C10.8195 11.0345 11.0615 10.9357 11.3133 10.9357C11.5651 10.9357 11.8071 11.0345 11.9849 11.2122C12.1627 11.3925 12.2614 11.632 12.2614 11.8838C12.2614 12.1357 12.1627 12.3776 11.9849 12.5554C11.8071 12.7357 11.5651 12.8344 11.3133 12.8344C11.0615 12.8344 10.8195 12.7357 10.6417 12.5554C10.4639 12.3776 10.3627 12.1357 10.3627 11.8838Z" fill="#333333"/>
</svg>
