<svg width="24" height="24" viewBox="0 0 24 24" fill="none" xmlns="http://www.w3.org/2000/svg">
<g clip-path="url(#clip0_3399_48254)">
<path d="M1.79961 21.5997V22.7997H16.1996V21.5997H1.79961ZM20.7065 6.2367L18.8156 4.66071C18.5609 4.44861 18.5266 4.07027 18.7387 3.81579C18.9508 3.56115 19.3292 3.52683 19.5837 3.73894L22.7519 6.37903C23.1624 6.72105 23.3996 7.22764 23.3996 7.76186V19.8C23.3996 21.1256 22.3252 22.2 20.9996 22.2C19.674 22.2 18.5996 21.1256 18.5996 19.8V12.6C18.5996 12.2687 18.3309 12 17.9996 12H16.1996V20.4C16.8624 20.4 17.3996 20.9372 17.3996 21.6V22.8C17.3996 23.4628 16.8624 24 16.1996 24H1.79961C1.13682 24 0.599609 23.4628 0.599609 22.8V21.6C0.599609 20.9372 1.13682 20.4 1.79961 20.4V1.8C1.79961 0.805929 2.60554 0 3.59961 0H14.3996C15.3937 0 16.1996 0.805929 16.1996 1.8V10.8H17.9996C18.9937 10.8 19.7996 11.6059 19.7996 12.6V19.8C19.7996 20.4628 20.3368 21 20.9996 21C21.6624 21 22.1996 20.4628 22.1996 19.8V9.49757C22.0119 9.56387 21.81 9.60003 21.5996 9.60003C20.6055 9.60003 19.7996 8.7941 19.7996 7.80003C19.7996 7.1309 20.1647 6.54694 20.7065 6.2367ZM14.9996 1.7997C14.9996 1.46839 14.7309 1.1997 14.3996 1.1997H3.59961C3.2683 1.1997 2.99961 1.46839 2.99961 1.7997V20.3997H14.9996V1.7997ZM5.39961 2.3997H12.5996C13.2624 2.3997 13.7996 2.93691 13.7996 3.5997V8.3997C13.7996 10.8 13.7996 10.8 12.5996 10.8H5.39961C4.19961 10.8 4.19961 10.1847 4.19961 8.3997V3.5997C4.19961 2.93691 4.73682 2.3997 5.39961 2.3997ZM5.39961 3.5997V9.49757H12.5996V3.5997H5.39961ZM21.5996 8.3997C21.9309 8.3997 22.1996 8.13101 22.1996 7.7997C22.1996 7.46839 21.9309 7.1997 21.5996 7.1997C21.2683 7.1997 20.9996 7.46839 20.9996 7.7997C20.9996 8.13101 21.2683 8.3997 21.5996 8.3997Z" fill="#333333"/>
</g>
<defs>
<clipPath id="clip0_3399_48254">
<rect width="24" height="24" fill="white"/>
</clipPath>
</defs>
</svg>
