<?xml version="1.0" encoding="iso-8859-1"?>
<!-- Generator: Adobe Illustrator 25.0.0, SVG Export Plug-In . SVG Version: 6.00 Build 0)  -->
<svg version="1.1" xmlns="http://www.w3.org/2000/svg" xmlns:xlink="http://www.w3.org/1999/xlink" x="0px" y="0px"
	 viewBox="0 0 100 100" style="enable-background:new 0 0 100 100;" xml:space="preserve">
<g id="Layer_1">
	<rect x="34" y="34" style="fill:#FFFFFF;" width="32" height="32"/>
	<polygon style="fill:#E85654;" points="67,82 67,67 82,67 	"/>
	<path style="fill:#3A83C1;" d="M82,33H67V18h11c2.209,0,4,1.791,4,4V33z"/>
	<rect x="66" y="34" style="fill:#EAD032;" width="16" height="32"/>
	<rect x="34" y="67" style="fill:#8CC78C;" width="32" height="15"/>
	<path style="fill:#70B570;" d="M34,82H22c-2.209,0-4-1.791-4-4V67h16V82z"/>
	<path style="fill:#40A6DD;" d="M66,18H34h-5h-4.978C20.696,18,18,20.696,18,24.022V67h16V34h32V18z"/>
	<g>
		<path style="fill:#1F212B;" d="M66.5,83.015H23c-3.309,0-6-2.691-6-6v-54c0-3.309,2.691-6,6-6h54c3.309,0,6,2.691,6,6V67
			c0,0.271-0.109,0.53-0.305,0.718l-15.5,15.016C67.009,82.914,66.76,83.015,66.5,83.015z M23,19.015c-2.206,0-4,1.794-4,4v54
			c0,2.206,1.794,4,4,4h43.095L81,66.576V23.015c0-2.206-1.794-4-4-4H23z"/>
	</g>
	<g>
		<path style="fill:#1F212B;" d="M33.5,82c-0.276,0-0.5-0.224-0.5-0.5v-15c0-0.276,1,0.5,1,0.5v14.5C34,81.776,33.776,82,33.5,82z"
			/>
	</g>
	<g>
		<path style="fill:#1F212B;" d="M82,34H66.5c-0.276,0-0.5-0.224-0.5-0.5s0.224-0.5,0.5-0.5H82c0.276,0,0.5,0.224,0.5,0.5
			S82.276,34,82,34z"/>
	</g>
	<g>
		<rect x="19" y="66" style="fill:#1F212B;" width="63" height="1"/>
	</g>
	<g>
		<path style="fill:#1F212B;" d="M66.5,34c-0.276,0-0.5-0.224-0.5-0.5v-15c0-0.276,0.224-0.5,0.5-0.5s0.5,0.224,0.5,0.5v15
			C67,33.776,66.776,34,66.5,34z"/>
	</g>
	<path style="fill:#1F212B;" d="M34,22.5c0,0.276-0.224,0.5-0.5,0.5l-7,0c-1.93,0-3.5,1.57-3.5,3.5l0,25c0,0.276-0.224,0.5-0.5,0.5
		S22,51.776,22,51.5l0-25c0-2.481,2.019-4.5,4.5-4.5l7,0C33.776,22,34,22.224,34,22.5z"/>
	<path style="fill:#1F212B;" d="M23,54.5l0,4c0,0.276-0.224,0.5-0.5,0.5S22,58.776,22,58.5l0-4c0-0.276,0.224-0.5,0.5-0.5
		S23,54.224,23,54.5z"/>
	<path style="fill:#1F212B;" d="M23,61.5l0,1c0,0.276-0.224,0.5-0.5,0.5S22,62.776,22,62.5l0-1c0-0.276,0.224-0.5,0.5-0.5
		S23,61.224,23,61.5z"/>
	<path style="fill:#1F212B;" d="M70,22h3.5c2.481,0,4.5,2.019,4.5,4.5l0,0c0,0.276-0.224,0.5-0.5,0.5S77,26.776,77,26.5l0,0
		c0-1.93-1.57-3.5-3.5-3.5H70c-0.276,0-0.5-0.224-0.5-0.5S69.724,22,70,22z"/>
	<path style="fill:#1F212B;" d="M77.5,29c0.276,0,0.5,0.224,0.5,0.5v1c0,0.276-0.224,0.5-0.5,0.5S77,30.776,77,30.5v-1
		C77,29.224,77.224,29,77.5,29z"/>
	<g>
		<path style="fill:#1F212B;" d="M66.5,83c-0.276,0-0.5-0.224-0.5-0.5v-16c0-0.276,0.224-0.5,0.5-0.5s0.5,0.224,0.5,0.5v16
			C67,82.776,66.776,83,66.5,83z"/>
	</g>
	<g>
		<g>
			<path style="fill:#1F212B;" d="M39.651,55.736c0-0.441,0.082-0.739,0.245-0.894c0.163-0.153,0.457-0.23,0.88-0.23
				c0.461,0,0.782,0.077,0.966,0.23c0.182,0.154,0.273,0.394,0.273,0.721c0,0.73,0.312,1.394,0.937,1.989
				c0.625,0.596,1.571,0.894,2.84,0.894c2.575,0,3.862-1.326,3.862-3.979V53.92c0-2.344-1.287-3.517-3.862-3.517
				c-0.558,0-0.836-0.336-0.836-1.009s0.278-1.009,0.836-1.009c1.114,0,1.95-0.249,2.508-0.746c0.558-0.498,0.836-1.397,0.836-2.699
				c0-2.238-1.076-3.358-3.229-3.358c-1.23,0-2.1,0.272-2.608,0.816c-0.51,0.543-0.765,1.188-0.765,1.931
				c0,0.706-0.385,1.059-1.152,1.059c-0.52,0-0.86-0.087-1.023-0.26c-0.164-0.173-0.245-0.499-0.245-0.979s0.091-0.976,0.273-1.485
				c0.183-0.509,0.476-1.018,0.88-1.527c0.403-0.509,1.013-0.927,1.83-1.254c0.816-0.327,1.772-0.49,2.868-0.49
				c3.671,0,5.506,1.706,5.506,5.118c0,1.207-0.212,2.231-0.634,3.074c-0.423,0.844-0.99,1.428-1.701,1.753
				c1.96,0.788,2.94,2.316,2.94,4.583v0.548c0,2.114-0.576,3.671-1.729,4.67c-1.153,1-2.672,1.499-4.555,1.499
				c-1.979,0-3.498-0.504-4.555-1.514C40.18,58.114,39.651,56.985,39.651,55.736z"/>
		</g>
		<g>
			<path style="fill:#1F212B;" d="M55.362,43.889c0-0.403,0.173-0.739,0.519-1.009l2.652-3.143c0.249-0.249,0.499-0.374,0.749-0.374
				c0.27,0,0.514,0.076,0.735,0.23c0.221,0.153,0.331,0.365,0.331,0.634v19.371c0,0.27-0.12,0.481-0.36,0.635
				c-0.24,0.154-0.523,0.23-0.85,0.23c-0.327,0-0.61-0.076-0.851-0.23c-0.241-0.153-0.36-0.365-0.36-0.635V42.995l-1.066,1.585
				c-0.192,0.212-0.395,0.317-0.605,0.317c-0.25,0-0.462-0.101-0.635-0.303C55.448,44.394,55.362,44.158,55.362,43.889z"/>
		</g>
	</g>
	<path style="fill:none;stroke:#1F212B;stroke-width:2;stroke-miterlimit:10;" d="M66,66H34V35c0-0.552,0.448-1,1-1h31V66z"/>
</g>
<g id="&#x421;&#x43B;&#x43E;&#x439;_2">
</g>
</svg>