<svg width="24" height="24" viewBox="0 0 24 24" fill="none" xmlns="http://www.w3.org/2000/svg">
<path d="M20.7365 13.1634V21.0041C20.7365 21.6174 20.2635 22.0976 19.6588 22.0976H15.3219C14.7174 22.0976 14.2442 21.6176 14.2442 21.0041V15.457C14.2442 15.0836 13.955 14.7903 13.587 14.7903H10.6432C10.2752 14.7903 9.98604 15.0836 9.98604 15.457V20.9774C9.98604 21.5908 9.513 22.0709 8.90831 22.0709H4.57138C3.96688 22.0709 3.49365 21.591 3.49365 20.9774V13.1634L12.1151 6.09619L20.7365 13.1634Z" fill="#848484"/>
<path d="M23.6542 12.71C23.4177 13.0299 23.0233 13.2167 22.6291 13.1899C22.3399 13.1899 22.0508 13.0833 21.8143 12.8965L12.1151 4.94921L2.41599 12.8965C1.91653 13.4299 1.0755 13.4567 0.549664 12.9499C0.0240123 12.4432 -0.00241351 11.5899 0.497043 11.0563C0.575884 10.9764 0.681127 10.8964 0.786187 10.8164L11.3002 2.20231C11.7732 1.80235 12.4568 1.80235 12.9298 2.20231L17.0568 5.61593V4.04251C17.0306 3.37579 17.5298 2.78908 18.187 2.68245C18.8967 2.60245 19.5538 3.10919 19.6589 3.85593V4.01591V7.56287V7.72286L23.4702 10.8431C24.0222 11.3231 24.101 12.1498 23.6542 12.7097L23.6542 12.71Z" fill="#848484"/>
</svg>
