<svg width="25" height="24" viewBox="0 0 25 24" fill="none" xmlns="http://www.w3.org/2000/svg">
<path d="M12.5 2.00008C9.84788 2.00008 7.30409 3.05368 5.42895 4.92902C3.55357 6.80439 2.5 9.34785 2.5 12C2.5 14.6522 3.55361 17.1959 5.42895 19.0711C7.30433 20.9464 9.8478 22 12.5 22C15.1522 22 17.6959 20.9464 19.5711 19.0711C21.4464 17.1957 22.5 14.6522 22.5 12C22.497 9.34874 21.4425 6.80696 19.5678 4.93223C17.693 3.0575 15.1514 2.00305 12.5 2.00008ZM12.5 16.4447C11.3213 16.4447 10.1908 15.9765 9.35726 15.143C8.52371 14.3094 8.05555 13.1789 8.05555 12.0002C8.05555 10.8216 8.52371 9.69106 9.35726 8.85751C10.1908 8.02397 11.3213 7.55581 12.5 7.55581C13.6787 7.55581 14.8092 8.02397 15.6427 8.85751C16.4763 9.69106 16.9444 10.8216 16.9444 12.0002C16.943 13.1786 16.4744 14.3083 15.6411 15.1414C14.8081 15.9746 13.6784 16.4432 12.5 16.4447ZM15.9783 7.65217C15.1351 6.9599 14.214 6.58136 13.1284 6.47276L13.0556 3.13934C15.0235 3.26066 16.8945 4.03661 18.3708 5.34366L15.9783 7.65217ZM11.8643 6.47276C10.7787 6.58136 9.86485 6.9599 9.02174 7.65217L6.62917 5.34366C8.10557 4.03661 9.97653 3.26064 11.9444 3.13934L11.8643 6.47276ZM8.05555 8.62827C7.62077 9.06306 7.08134 10.3589 6.97273 11.4445H3.63931C3.76063 9.47659 4.53658 7.60559 5.84363 6.12931L8.05555 8.62827ZM6.97273 12.5556C7.08134 13.6412 7.50872 14.6703 8.201 15.5134L5.84363 17.8709C4.53658 16.3945 3.76061 14.5236 3.63931 12.5557L6.97273 12.5556ZM8.98669 16.2991C9.8298 16.9914 10.8589 17.4188 11.9445 17.5274V20.8608C9.97657 20.7395 8.10557 19.9635 6.62929 18.6565L8.98669 16.2991ZM13.0556 17.5274C14.1412 17.4188 15.1703 16.9914 16.0134 16.2991L18.3708 18.6565C16.8944 19.9635 15.0236 20.7395 13.0557 20.8608L13.0556 17.5274ZM16.7991 15.5134C17.4914 14.6703 17.9188 13.6412 18.0274 12.5556H21.3608C21.2395 14.5235 20.4635 16.3945 19.1565 17.8708L16.7991 15.5134ZM18.0274 11.4445C17.9188 10.3589 17.4914 9.32981 16.7991 8.48671L19.1565 6.12935C20.4635 7.60575 21.2395 9.47655 21.3608 11.4444L18.0274 11.4445Z" fill="#333333"/>
</svg>
