<svg width="24" height="16" viewBox="0 0 24 16" fill="none" xmlns="http://www.w3.org/2000/svg">
<path fill-rule="evenodd" clip-rule="evenodd" d="M9.44 8.5333V10.7111H14.5342V8.5333H9.44ZM4.99457 13.6979V15.1291C4.99457 15.5957 4.57281 16.0002 4.05359 16.0002H1.65244C1.13325 16.0002 0.711456 15.5959 0.711456 15.1291V9.52897C0.711456 8.96893 1.06834 8.47112 1.58752 8.31563C1.61991 8.0045 1.6848 7.69338 1.78222 7.41341L0.938527 7.28895C0.322053 7.19568 -0.0673371 6.6667 -0.00245595 6.10666C0.0948247 5.54661 0.646527 5.14222 1.23063 5.2355L2.98276 5.4844L4.7349 1.99985C5.09178 1.1909 5.74076 0.786513 6.45466 0.630859H17.5194C18.2333 0.786362 18.8823 1.1909 19.2392 1.99985L20.9913 5.4844L22.7434 5.2355C23.3275 5.14223 23.8791 5.54663 23.9765 6.10666C24.0738 6.6667 23.652 7.19554 23.0679 7.28895L22.1919 7.41341C22.3217 7.69336 22.3866 8.00449 22.3866 8.31563C22.9058 8.47114 23.2952 8.96896 23.2952 9.52897C23.2952 11.3956 23.2628 13.2625 23.2628 15.1291C23.2628 15.5957 22.841 16.0002 22.3218 16.0002H19.9206C19.4014 16.0002 18.9797 15.5959 18.9797 15.1291V13.6979H4.99457ZM6.81162 1.93764C6.48713 1.96869 6.22752 2.15537 6.00044 2.49769C5.44885 3.58657 4.92966 4.76887 4.3781 5.92016C9.47234 6.66687 14.5022 6.66687 19.5964 5.92016C19.0772 4.76903 18.558 3.58674 17.9741 2.49769C17.747 2.1555 17.4874 1.96881 17.1629 1.93764H6.81162ZM21.4133 8.40882H16.4811C16.1242 8.40882 15.8646 8.68877 15.8646 9.03107V9.9333C15.8646 10.2444 16.1242 10.5244 16.4811 10.5244H21.4133V8.40882ZM2.56078 8.40882H7.49298C7.84986 8.40882 8.14196 8.68877 8.14196 9.03107V9.9333C8.14196 10.2444 7.84998 10.5244 7.49298 10.5244H2.56078V8.40882Z" fill="#333333"/>
</svg>
