<svg width="24" height="16" viewBox="0 0 24 16" fill="none" xmlns="http://www.w3.org/2000/svg">
<path fill-rule="evenodd" clip-rule="evenodd" d="M9.43997 8.5333V10.7111H14.5342V8.5333H9.43997ZM4.99454 13.6979V15.1291C4.99454 15.5957 4.57278 16.0002 4.05356 16.0002H1.65241C1.13322 16.0002 0.711426 15.5959 0.711426 15.1291V9.52897C0.711426 8.96893 1.06831 8.47112 1.58749 8.31563C1.61988 8.0045 1.68477 7.69338 1.78219 7.41341L0.938496 7.28895C0.322022 7.19568 -0.0673677 6.6667 -0.00248646 6.10666C0.0947942 5.54661 0.646497 5.14222 1.2306 5.2355L2.98273 5.4844L4.73487 1.99985C5.09175 1.1909 5.74073 0.786513 6.45463 0.630859H17.5194C18.2333 0.786362 18.8823 1.1909 19.2391 1.99985L20.9913 5.4844L22.7434 5.2355C23.3275 5.14223 23.8791 5.54663 23.9765 6.10666C24.0738 6.6667 23.652 7.19554 23.0679 7.28895L22.1919 7.41341C22.3217 7.69336 22.3865 8.00449 22.3865 8.31563C22.9057 8.47114 23.2951 8.96896 23.2951 9.52897C23.2951 11.3956 23.2627 13.2625 23.2627 15.1291C23.2627 15.5957 22.841 16.0002 22.3218 16.0002H19.9206C19.4014 16.0002 18.9796 15.5959 18.9796 15.1291V13.6979H4.99454ZM6.81159 1.93764C6.4871 1.96869 6.22749 2.15537 6.00041 2.49769C5.44882 3.58657 4.92963 4.76887 4.37807 5.92016C9.47231 6.66687 14.5021 6.66687 19.5964 5.92016C19.0772 4.76903 18.558 3.58674 17.974 2.49769C17.747 2.1555 17.4874 1.96881 17.1629 1.93764H6.81159ZM21.4133 8.40882H16.4811C16.1242 8.40882 15.8646 8.68877 15.8646 9.03107V9.9333C15.8646 10.2444 16.1242 10.5244 16.4811 10.5244H21.4133V8.40882ZM2.56075 8.40882H7.49295C7.84983 8.40882 8.14193 8.68877 8.14193 9.03107V9.9333C8.14193 10.2444 7.84995 10.5244 7.49295 10.5244H2.56075V8.40882Z" fill="#848484"/>
</svg>
