<svg width="56" height="56" viewBox="0 0 56 56" fill="none" xmlns="http://www.w3.org/2000/svg">
<path d="M43.4786 55.9993H11.7143C8.06548 55.9993 5.09688 53.386 5.09688 50.1739L5.09644 5.89957C5.09644 2.6875 8.06503 0.0742188 11.7138 0.0742188H36.0861L50.0964 12.4076V50.1737C50.0964 53.3858 47.1278 55.9991 43.479 55.9991L43.4786 55.9993ZM11.7143 2.40448C9.52471 2.40448 7.74375 3.97227 7.74375 5.89977V50.1731C7.74375 52.1006 9.52471 53.6684 11.7143 53.6684H43.4786C45.6681 53.6684 47.4491 52.1006 47.4491 50.1731V13.3727L34.9884 2.40348L11.7143 2.40448Z" fill="#333333"/>
<path d="M46.9162 15H40.4164C37.4298 15 35 12.3832 35 9.1668V2.1668C35 1.52266 35.4853 1 36.0834 1C36.6815 1 37.1669 1.52266 37.1669 2.1668V9.1668C37.1669 11.0969 38.6246 12.6668 40.4168 12.6668H46.9166C47.5147 12.6668 48 13.1895 48 13.8336C47.9996 14.4773 47.5143 15 46.9162 15Z" fill="#333333"/>
<path d="M23.1576 37.1928C22.9569 37.1928 22.7565 37.1409 22.5767 37.0367C22.2194 36.8295 22 36.4484 22 36.036V22.1563C22 21.7439 22.2194 21.3628 22.5763 21.156C22.934 20.9496 23.3731 20.9476 23.7316 21.1525L35.8853 28.0923C36.2457 28.298 36.4685 28.681 36.4685 29.0961C36.4685 29.5113 36.2457 29.8943 35.8853 30.0999L23.7316 37.0398C23.5541 37.1416 23.3553 37.1927 23.1577 37.1927L23.1576 37.1928ZM24.3148 24.1489V34.042L32.9782 29.0958L24.3148 24.1489Z" fill="#333333"/>
</svg>
