<svg width="18" height="18" viewBox="0 0 18 18" fill="none" xmlns="http://www.w3.org/2000/svg">
<path d="M8.99986 2.22076C13.7487 2.22076 17.6104 6.11122 17.6104 10.8956C17.6104 12.6872 17.0615 14.3567 16.1348 15.7402L15.2668 15.0495C15.9484 14.0053 16.3855 12.7764 16.482 11.4553H14.2773V10.336H16.482C16.3613 8.66672 15.6971 7.15511 14.6767 5.96361L13.123 7.52889L12.3418 6.73305L13.8955 5.16778C12.7136 4.14183 11.2105 3.47912 9.55548 3.35749V5.57863H8.44454V3.35749C6.78954 3.47891 5.28642 4.14158 4.10455 5.16778L5.65822 6.73305L4.87702 7.52889L3.32335 5.96361C2.30288 7.15511 1.63869 8.66672 1.51802 10.336H3.72268V11.4553H1.51802C1.6145 12.7764 2.05161 14.0051 2.73321 15.0495L1.86521 15.7402C0.93849 14.3567 0.389618 12.6871 0.389618 10.8956C0.389618 6.11137 4.25122 2.22076 9.00016 2.22076H8.99986ZM3.72268 8.47957L10.2063 12.9939C10.5898 13.6631 10.3584 14.5227 9.69426 14.909C9.03007 15.2953 8.1768 15.0622 7.79339 14.3931L3.72268 8.47957Z" fill="#333333"/>
</svg>
