<svg width="24" height="24" viewBox="0 0 24 24" fill="none" xmlns="http://www.w3.org/2000/svg">
<path d="M12.0001 3.40894C18.0667 3.40894 23 8.3421 23 14.4088C23 16.6805 22.2988 18.7975 21.1149 20.5518L20.0061 19.6759C20.9991 18.1658 21.5805 16.3548 21.5805 14.4086C21.5805 9.10905 17.2996 4.82803 12 4.82803C6.70042 4.82803 2.41947 9.10898 2.41947 14.4086C2.41947 16.3548 3.00087 18.1658 3.99417 19.6756L2.88531 20.5516C1.70118 18.7972 1 16.6802 1 14.4086C1 8.34203 5.93315 3.40869 11.9999 3.40869L12.0001 3.40894ZM5.72393 10.2617L13.2528 15.2847C13.9458 15.9775 13.9458 17.0977 13.2528 17.7908C12.5599 18.4836 11.4395 18.4836 10.7467 17.7908L5.72393 10.2617Z" fill="#333333"/>
</svg>
