<svg width="18" height="18" viewBox="0 0 18 18" fill="none" xmlns="http://www.w3.org/2000/svg">
<path d="M17.9693 4.54369C17.9693 3.6351 17.2483 2.89685 16.361 2.89685H7.69063C6.80329 2.89685 6.0823 3.6351 6.0823 4.54369V11.2448C6.0823 12.1533 6.80329 12.8916 7.69063 12.8916H9.71821L9.31751 14.7846C9.31751 15.0875 9.6688 15.2389 9.87215 15.0117L11.9165 12.8917C11.9165 12.8917 11.9427 12.8917 11.9611 12.8917H16.3795C17.2668 12.8917 17.9878 12.1535 17.9878 11.2449V4.54383L17.9693 4.54369ZM11.5913 5.18726H12.4418C12.5343 5.18726 12.6267 5.26292 12.6267 5.37661L12.5343 8.93537C12.5343 9.03005 12.4604 9.08683 12.3864 9.08683H11.6838C11.5914 9.08683 11.5359 9.01116 11.5359 8.93537L11.4434 5.37661C11.425 5.26305 11.4989 5.18726 11.5913 5.18726ZM12.6266 10.3361C12.6266 10.4876 12.5157 10.6011 12.3678 10.6011H11.6838C11.5359 10.6011 11.425 10.4876 11.425 10.3361V9.88176C11.425 9.73031 11.5359 9.61676 11.6838 9.61676H12.3678C12.5157 9.61676 12.6266 9.73031 12.6266 9.88176V10.3361ZM0 4.88439C0 4.46794 0.332699 4.12727 0.739411 4.12727L3.99318 4.12714C4.39989 4.12714 4.73259 4.46781 4.73259 4.88426C4.73259 5.30071 4.39989 5.64137 3.99318 5.64137L0.739411 5.6415C0.332831 5.6415 0 5.3007 0 4.88439ZM4.71417 7.89416C4.71417 8.31061 4.38147 8.65127 3.97476 8.65127H1.57142C1.16471 8.65127 0.832011 8.31061 0.832011 7.89416C0.832011 7.47771 1.16471 7.13704 1.57142 7.13704H3.97476C4.39992 7.13691 4.71417 7.47771 4.71417 7.89416ZM4.71417 10.9039C4.71417 11.3204 4.38147 11.661 3.97476 11.661H2.51422C2.10751 11.661 1.77481 11.3204 1.77481 10.9039C1.77481 10.4875 2.10751 10.1468 2.51422 10.1468H3.99321C4.39992 10.1468 4.7142 10.4875 4.7142 10.9039H4.71417Z" fill="#F1AE1D"/>
</svg>
