<svg width="24" height="24" viewBox="0 0 24 24" fill="none" xmlns="http://www.w3.org/2000/svg">
<g clip-path="url(#clip0_4292_8000)">
<path d="M12 17.9998C15.79 17.9998 19.17 15.8698 20.82 12.4998C20.23 11.2798 19.4 10.2298 18.41 9.3798L19.82 7.9698C21.21 9.1998 22.31 10.7398 23 12.4998C21.27 16.8898 17 19.9998 12 19.9998C10.73 19.9998 9.51 19.7998 8.36 19.4298L10.01 17.7798C10.66 17.9098 11.32 17.9998 12 17.9998ZM10.93 16.8598L13 14.7898C13.57 14.5398 14.03 14.0798 14.28 13.5098L16.35 11.4398C16.43 11.7798 16.49 12.1398 16.49 12.5098C16.5 14.9898 14.48 16.9998 12 16.9998C11.63 16.9998 11.28 16.9498 10.93 16.8598ZM2.01 20.1298L4.69 17.4498C3.06 16.1698 1.77 14.4698 1 12.4998C2.73 8.1098 7 4.99981 12 4.99981C13.52 4.99981 14.98 5.2898 16.32 5.8198L19.74 2.39981L21.15 3.8098L3.42 21.5498L2.01 20.1298ZM9.51 12.6298L12.12 10.0198C12.08 10.0098 12.04 9.9998 12 9.9998C10.62 9.9998 9.5 11.1198 9.5 12.4998C9.5 12.5498 9.51 12.5798 9.51 12.6298ZM6.11 16.0298L7.86 14.2798C7.63 13.7298 7.5 13.1298 7.5 12.4998C7.5 10.0198 9.52 7.9998 12 7.9998C12.63 7.9998 13.23 8.1298 13.77 8.3598L14.75 7.3798C13.87 7.1398 12.95 6.9998 12 6.9998C8.21 6.9998 4.83 9.1298 3.18 12.4998C3.88 13.9298 4.9 15.1098 6.11 16.0298Z" fill="#333333"/>
</g>
<defs>
<clipPath id="clip0_4292_8000">
<rect width="24" height="24" fill="white" transform="matrix(1 0 0 -1 0 24)"/>
</clipPath>
</defs>
</svg>
