<svg width="24" height="24" viewBox="0 0 24 24" fill="none" xmlns="http://www.w3.org/2000/svg">
<path d="M22.8569 5.69532C22.8569 5.0292 22.5922 4.39032 22.1209 3.91932C21.6497 3.44815 21.0106 3.18359 20.3441 3.18359H3.65537C2.98885 3.18359 2.34974 3.44816 1.87857 3.91932C1.40723 4.39032 1.14258 5.0292 1.14258 5.69532V18.3045C1.14258 18.9706 1.40724 19.6095 1.87857 20.0805C2.34974 20.5517 2.98885 20.8162 3.65537 20.8162H20.3441C21.0106 20.8162 21.6497 20.5517 22.1209 20.0805C22.5922 19.6095 22.8569 18.9706 22.8569 18.3045V5.69532ZM3.65545 4.55359H20.3442C20.6471 4.55359 20.9377 4.67401 21.1519 4.88808C21.366 5.10215 21.4863 5.39252 21.4863 5.69532V11.8334L14.9692 15.4253C14.8371 15.498 14.6846 15.525 14.5354 15.5024C14.3865 15.4796 14.249 15.4084 14.1446 15.2998L9.3476 10.3219V10.3217C9.00709 9.96777 8.55108 9.74732 8.06204 9.70051C7.57304 9.65353 7.08339 9.78318 6.68184 10.0659L2.51303 13.0002V5.69311C2.51351 5.39064 2.63413 5.10092 2.84828 4.8873C3.06243 4.6737 3.35258 4.5536 3.65516 4.5536L3.65545 4.55359ZM20.3442 19.4462H3.65545C3.35255 19.4462 3.0619 19.3258 2.84775 19.1118C2.6336 18.8977 2.5133 18.6073 2.5133 18.3045V14.6509C2.56318 14.6315 2.61082 14.6061 2.6548 14.5756L7.47463 11.18C7.60847 11.0857 7.77163 11.0424 7.93462 11.0578C8.09763 11.0733 8.24964 11.1467 8.36325 11.2646L13.1419 16.247C13.4553 16.5732 13.8677 16.7868 14.3149 16.855C14.7622 16.9232 15.2194 16.8418 15.6158 16.6237L21.4864 13.3949V18.3043C21.4864 18.6071 21.3661 18.8975 21.152 19.1116C20.9378 19.3257 20.6472 19.4461 20.3443 19.4461L20.3442 19.4462Z" fill="black"/>
<path d="M14.8892 11.8476C15.6423 11.8476 16.3646 11.5486 16.8969 11.0163C17.4294 10.484 17.7287 9.76209 17.7287 9.00932C17.7287 8.25656 17.4295 7.53453 16.8969 7.0022C16.3646 6.47003 15.6423 6.1709 14.8892 6.1709C14.1362 6.1709 13.4139 6.47003 12.8816 7.0022C12.349 7.53453 12.0498 8.25656 12.0498 9.00932C12.0511 9.76177 12.3506 10.483 12.8828 11.015C13.415 11.547 14.1365 11.8465 14.8892 11.8476ZM14.8892 7.53877C15.2788 7.53877 15.6523 7.6936 15.9278 7.96884C16.2033 8.24424 16.358 8.61775 16.358 9.0072C16.358 9.39649 16.2033 9.77 15.9278 10.0454C15.6523 10.3206 15.2788 10.4755 14.8892 10.4755C14.4997 10.4755 14.1262 10.3206 13.8507 10.0454C13.5752 9.77001 13.4205 9.39649 13.4205 9.0072C13.4217 8.61824 13.5769 8.24583 13.8521 7.97108C14.1274 7.69632 14.5003 7.54183 14.8892 7.54118V7.53877Z" fill="black"/>
</svg>
