<svg width="24" height="24" viewBox="0 0 24 24" fill="none" xmlns="http://www.w3.org/2000/svg">
<path d="M15.9837 2.14708L15.9828 2.22907V2.14707H15.9826L7.97594 2.14706L7.97483 2.14708C7.6997 2.15012 7.45412 2.32073 7.35523 2.57756L7.35532 2.57762L6.38019 5.00643H3.40052C1.61249 5.00643 0.154883 6.46404 0.154883 8.25207V18.5465C0.154883 20.3214 1.59106 21.7706 3.36099 21.7919L3.36146 21.7924H3.40073H20.5582C22.3462 21.7924 23.8038 20.3348 23.8038 18.5467V8.25227C23.8038 6.46424 22.3462 5.00663 20.5582 5.00663H17.5785L16.6033 2.57756C16.6032 2.57734 16.6031 2.57712 16.603 2.5769C16.504 2.32043 16.2586 2.15012 15.9837 2.14708ZM16.5066 5.93052C16.5962 6.15195 16.7952 6.30676 17.0265 6.34257V6.35067H17.1265H20.558C21.6215 6.35067 22.4596 7.18874 22.4596 8.25233V18.5468C22.4596 19.6104 21.6215 20.4484 20.558 20.4484H3.50052V20.4482H3.40052C2.33694 20.4482 1.49887 19.6102 1.49887 18.5466V8.25213C1.49887 7.18855 2.33694 6.35047 3.40052 6.35047L6.83195 6.35048L6.83247 6.35047C7.10501 6.34907 7.34967 6.18314 7.45184 5.93052L7.45198 5.93017L8.42779 3.4909H15.5307L16.5065 5.93017L16.5066 5.93052ZM6.44605 13.3994C6.44605 16.4485 8.93019 18.9326 11.9792 18.9326C15.0283 18.9326 17.5124 16.4485 17.5124 13.3994C17.5124 10.3503 15.0285 7.86621 11.9792 7.86621C8.93014 7.86621 6.44605 10.3504 6.44605 13.3994ZM16.1686 13.3995C16.1686 15.7199 14.2997 17.5889 11.9792 17.5889C9.65882 17.5889 7.78988 15.7199 7.78988 13.3995C7.78988 11.0791 9.65882 9.21015 11.9792 9.21015C14.2997 9.21015 16.1686 11.0791 16.1686 13.3995Z" fill="black" stroke="black" stroke-width="0.2"/>
</svg>
