<svg width="24" height="20" viewBox="0 0 24 20" fill="none" xmlns="http://www.w3.org/2000/svg">
<path d="M15.9837 0.146588L15.9828 0.228581V0.146582H15.9826L7.97594 0.146576L7.97483 0.146588C7.6997 0.149636 7.45412 0.32024 7.35523 0.577074L7.35532 0.57713L6.38019 3.00595H3.40052C1.61249 3.00595 0.154883 4.46355 0.154883 6.25158V16.5461C0.154883 18.3209 1.59106 19.7702 3.36099 19.7914L3.36146 19.7919H3.40073H20.5582C22.3462 19.7919 23.8038 18.3343 23.8038 16.5462V6.25178C23.8038 4.46375 22.3462 3.00615 20.5582 3.00615H17.5785L16.6033 0.577077C16.6032 0.576854 16.6031 0.576631 16.603 0.576408C16.504 0.319938 16.2586 0.149632 15.9837 0.146588ZM16.5066 3.93003C16.5962 4.15146 16.7952 4.30627 17.0265 4.34208V4.35018H17.1265H20.558C21.6215 4.35018 22.4596 5.18826 22.4596 6.25184V16.5463C22.4596 17.6099 21.6215 18.448 20.558 18.448H3.50052V18.4478H3.40052C2.33694 18.4478 1.49887 17.6097 1.49887 16.5461V6.25164C1.49887 5.18806 2.33694 4.34999 3.40052 4.34999L6.83195 4.34999L6.83247 4.34998C7.10501 4.34858 7.34967 4.18265 7.45184 3.93003L7.45198 3.92968L8.42779 1.49041H15.5307L16.5065 3.92968L16.5066 3.93003ZM6.44605 11.3989C6.44605 14.448 8.93019 16.9321 11.9792 16.9321C15.0283 16.9321 17.5124 14.448 17.5124 11.3989C17.5124 8.34982 15.0285 5.86573 11.9792 5.86573C8.93014 5.86573 6.44605 8.34987 6.44605 11.3989ZM16.1686 11.399C16.1686 13.7194 14.2997 15.5884 11.9792 15.5884C9.65882 15.5884 7.78988 13.7194 7.78988 11.399C7.78988 9.07861 9.65882 7.20966 11.9792 7.20966C14.2997 7.20966 16.1686 9.07861 16.1686 11.399Z" fill="#EBEBEB" stroke="#EBEBEB" stroke-width="0.2"/>
</svg>
