<svg width="25" height="24" viewBox="0 0 25 24" fill="none" xmlns="http://www.w3.org/2000/svg">
<g clip-path="url(#clip0_3399_48295)">
<mask id="path-1-outside-1_3399_48295" maskUnits="userSpaceOnUse" x="-0.5" y="1.3606" width="26" height="21" fill="black">
<rect fill="white" x="-0.5" y="1.3606" width="26" height="21"/>
<path d="M5.79518 15.3116H7.99854C8.46561 15.3145 8.90447 15.0877 9.1724 14.705C9.44033 14.3224 9.50317 13.8326 9.34078 13.3946C9.17821 12.9565 8.81107 12.6263 8.35835 12.511L6.15516 11.9357C5.72842 11.8232 5.27385 11.9152 4.92447 12.1845C4.57492 12.454 4.37033 12.8704 4.37051 13.3114V13.8867C4.37051 14.2646 4.52061 14.627 4.78786 14.8942C5.05493 15.1615 5.41745 15.3116 5.7952 15.3116L5.79518 15.3116ZM5.35203 13.3114H5.3522C5.3522 13.1741 5.4159 13.0445 5.52467 12.9607C5.63345 12.8768 5.77502 12.8481 5.90787 12.8832L8.11106 13.4585C8.33135 13.511 8.4765 13.7213 8.44764 13.946C8.41861 14.1705 8.22496 14.3372 7.99854 14.3324H5.79518C5.55116 14.331 5.35343 14.1335 5.35221 13.8893L5.35203 13.3114ZM18.8362 11.9357L16.633 12.511C16.18 12.6263 15.8126 12.9569 15.6503 13.3953C15.488 13.8336 15.5514 14.3239 15.82 14.7064C16.0884 15.0891 16.5278 15.3152 16.9954 15.3116H19.1986C19.5756 15.3109 19.937 15.1608 20.2035 14.8943C20.4703 14.6277 20.6202 14.2664 20.6209 13.8893V13.3114C20.621 12.8703 20.4165 12.454 20.0669 12.1846C19.7175 11.9153 19.2629 11.8232 18.8362 11.9358L18.8362 11.9357ZM19.4678 12.9615V12.9614C19.5778 13.0452 19.6422 13.1757 19.6417 13.314V13.8893C19.6403 14.1335 19.4427 14.331 19.1985 14.3324H16.9953C16.7689 14.3372 16.5751 14.1706 16.5462 13.946C16.5172 13.7213 16.6624 13.5111 16.8827 13.4585L19.0858 12.8832H19.086C19.1227 12.8734 19.1605 12.8685 19.1985 12.8685C19.2961 12.8688 19.3908 12.9014 19.4678 12.9614L19.4678 12.9615ZM6.13057 10.107H18.8606C19.023 10.1072 19.1748 10.0268 19.2662 9.89236C19.3574 9.75797 19.376 9.58703 19.3159 9.43623C18.9021 8.39098 18.0918 6.46185 17.6757 5.86692C17.377 5.43847 16.9412 5.21083 16.192 5.07868V5.07851C14.9689 4.89511 13.7321 4.81723 12.4955 4.8461C11.2622 4.81724 10.0288 4.89408 8.80864 5.07612C8.05214 5.20829 7.62373 5.43592 7.32502 5.86694C6.91125 6.46186 6.10097 8.39083 5.6848 9.43625C5.62537 9.5855 5.64296 9.75438 5.73176 9.88827C5.82073 10.0221 5.96963 10.1039 6.13032 10.107L6.13057 10.107ZM8.12082 6.43488C8.19425 6.32713 8.30695 6.16558 8.97039 6.05049C10.1369 5.87529 11.3164 5.79998 12.4957 5.82525C13.6724 5.79776 14.8493 5.87068 16.0136 6.04315C16.6747 6.15825 16.7872 6.31979 16.8606 6.42498C17.3453 7.29143 17.7674 8.19136 18.1238 9.11797H6.86521C7.22211 8.19241 7.64423 7.29335 8.12851 6.42756L8.12082 6.43488ZM1.92235 11.5147C1.49185 12.3456 1.27806 13.2718 1.3004 14.2075V19.9509C1.30109 20.3986 1.47937 20.8279 1.79597 21.1445C2.11256 21.4611 2.54185 21.6394 2.98963 21.6399H4.53931C4.98705 21.6394 5.41634 21.4611 5.73297 21.1445C6.04974 20.8279 6.22784 20.3986 6.22853 19.9509V19.5395H18.7627V19.9509C18.7634 20.3986 18.9415 20.8279 19.2583 21.1445C19.5749 21.4611 20.0042 21.6394 20.452 21.6399H22.0041C22.4518 21.6394 22.8811 21.4611 23.1977 21.1445C23.5145 20.8279 23.6926 20.3986 23.6933 19.9509V14.2223C23.7151 13.2869 23.5013 12.3608 23.0715 11.5295C23.4655 11.4611 23.823 11.2568 24.0824 10.9523C24.3417 10.6479 24.4863 10.2623 24.4912 9.86234V8.98103C24.4808 8.54882 24.3048 8.13727 23.9996 7.83108C23.6943 7.5249 23.2833 7.34763 22.8511 7.33587H22.3859C21.9907 7.34406 21.6045 7.45455 21.2648 7.65656C20.8486 6.65538 20.1852 5.14478 19.7103 4.45932C18.8046 3.15947 17.5071 2.79947 16.6184 2.64288H16.6182C15.2547 2.43062 13.8753 2.33806 12.4956 2.36624C11.1194 2.33619 9.74323 2.42618 8.38293 2.63554C7.48933 2.7923 6.19442 3.14972 5.2885 4.45198C4.81361 5.13744 4.15018 6.65517 3.73401 7.64922H3.73384C3.39248 7.44687 3.00448 7.33638 2.6078 7.32853H2.14997C1.71486 7.33792 1.30022 7.51517 0.992677 7.82304C0.685303 8.1311 0.508743 8.54588 0.5 8.98099V9.8623C0.508368 10.26 0.654885 10.6424 0.914448 10.9439C1.17384 11.2453 1.53023 11.4472 1.92232 11.5148L1.92235 11.5147ZM1.4792 9.01757C1.4792 8.8328 1.55229 8.65538 1.68258 8.52424C1.8127 8.39309 1.98961 8.31881 2.17438 8.31744H2.59549C2.98056 8.33862 3.34294 8.50596 3.609 8.78498C3.72682 8.89512 3.89144 8.94038 4.04887 8.90554C4.20648 8.87088 4.33677 8.76073 4.3974 8.61114C5.08046 6.91457 5.7292 5.53875 6.08898 5.02216C6.77681 4.04301 7.76352 3.74911 8.53707 3.61197V3.61214C9.84208 3.41661 11.1617 3.33465 12.4809 3.36743C13.8001 3.33465 15.1197 3.41661 16.4247 3.61214C17.2082 3.74927 18.1947 4.03325 18.8728 5.02233C19.2326 5.54128 19.8813 6.91474 20.5644 8.61131V8.61114C20.625 8.76073 20.7553 8.87087 20.9129 8.90554C21.0704 8.94038 21.235 8.89512 21.3528 8.78498C21.6168 8.50732 21.9764 8.3403 22.359 8.31744H22.7874C22.9773 8.31078 23.1617 8.38165 23.2984 8.51365C23.435 8.64565 23.5122 8.82752 23.512 9.01756V9.84012C23.512 10.035 23.4346 10.2218 23.2968 10.3594C23.1592 10.4972 22.9724 10.5746 22.7775 10.5746H22.1998C22.0144 10.5746 21.8448 10.6793 21.7618 10.8452C21.679 11.0111 21.6969 11.2095 21.8081 11.3579C21.8636 11.4313 21.9167 11.5056 21.9672 11.5808C22.4771 12.3624 22.7336 13.2823 22.7017 14.2148V19.9508C22.7017 20.139 22.6269 20.3196 22.4937 20.4526C22.3605 20.5858 22.18 20.6606 21.9917 20.6606H20.4519C20.2635 20.6606 20.083 20.5858 19.9498 20.4526C19.8168 20.3196 19.742 20.1389 19.742 19.9508V19.0498C19.742 18.92 19.6903 18.7954 19.5986 18.7037C19.5067 18.6118 19.3822 18.5602 19.2523 18.5602H5.73881C5.46832 18.5602 5.24906 18.7793 5.24906 19.0498V19.9508C5.24906 20.1389 5.17426 20.3196 5.04124 20.4526C4.90804 20.5858 4.72754 20.6606 4.53921 20.6606H2.98471C2.79636 20.6606 2.61586 20.5858 2.48268 20.4526C2.34948 20.3196 2.27469 20.1389 2.27469 19.9508V14.2074C2.24429 13.2781 2.50078 12.3617 3.00916 11.5831C3.0597 11.5079 3.11281 11.4338 3.16831 11.3602V11.3604C3.27948 11.212 3.29741 11.0134 3.21459 10.8476C3.1316 10.6818 2.96203 10.5769 2.77656 10.5769H2.70808L2.21357 10.5696C2.01872 10.5696 1.8319 10.4922 1.69427 10.3544C1.55646 10.2168 1.4791 10.03 1.4791 9.83512V9.01751L1.4792 9.01757Z"/>
</mask>
<path d="M5.79518 15.3116H7.99854C8.46561 15.3145 8.90447 15.0877 9.1724 14.705C9.44033 14.3224 9.50317 13.8326 9.34078 13.3946C9.17821 12.9565 8.81107 12.6263 8.35835 12.511L6.15516 11.9357C5.72842 11.8232 5.27385 11.9152 4.92447 12.1845C4.57492 12.454 4.37033 12.8704 4.37051 13.3114V13.8867C4.37051 14.2646 4.52061 14.627 4.78786 14.8942C5.05493 15.1615 5.41745 15.3116 5.7952 15.3116L5.79518 15.3116ZM5.35203 13.3114H5.3522C5.3522 13.1741 5.4159 13.0445 5.52467 12.9607C5.63345 12.8768 5.77502 12.8481 5.90787 12.8832L8.11106 13.4585C8.33135 13.511 8.4765 13.7213 8.44764 13.946C8.41861 14.1705 8.22496 14.3372 7.99854 14.3324H5.79518C5.55116 14.331 5.35343 14.1335 5.35221 13.8893L5.35203 13.3114ZM18.8362 11.9357L16.633 12.511C16.18 12.6263 15.8126 12.9569 15.6503 13.3953C15.488 13.8336 15.5514 14.3239 15.82 14.7064C16.0884 15.0891 16.5278 15.3152 16.9954 15.3116H19.1986C19.5756 15.3109 19.937 15.1608 20.2035 14.8943C20.4703 14.6277 20.6202 14.2664 20.6209 13.8893V13.3114C20.621 12.8703 20.4165 12.454 20.0669 12.1846C19.7175 11.9153 19.2629 11.8232 18.8362 11.9358L18.8362 11.9357ZM19.4678 12.9615V12.9614C19.5778 13.0452 19.6422 13.1757 19.6417 13.314V13.8893C19.6403 14.1335 19.4427 14.331 19.1985 14.3324H16.9953C16.7689 14.3372 16.5751 14.1706 16.5462 13.946C16.5172 13.7213 16.6624 13.5111 16.8827 13.4585L19.0858 12.8832H19.086C19.1227 12.8734 19.1605 12.8685 19.1985 12.8685C19.2961 12.8688 19.3908 12.9014 19.4678 12.9614L19.4678 12.9615ZM6.13057 10.107H18.8606C19.023 10.1072 19.1748 10.0268 19.2662 9.89236C19.3574 9.75797 19.376 9.58703 19.3159 9.43623C18.9021 8.39098 18.0918 6.46185 17.6757 5.86692C17.377 5.43847 16.9412 5.21083 16.192 5.07868V5.07851C14.9689 4.89511 13.7321 4.81723 12.4955 4.8461C11.2622 4.81724 10.0288 4.89408 8.80864 5.07612C8.05214 5.20829 7.62373 5.43592 7.32502 5.86694C6.91125 6.46186 6.10097 8.39083 5.6848 9.43625C5.62537 9.5855 5.64296 9.75438 5.73176 9.88827C5.82073 10.0221 5.96963 10.1039 6.13032 10.107L6.13057 10.107ZM8.12082 6.43488C8.19425 6.32713 8.30695 6.16558 8.97039 6.05049C10.1369 5.87529 11.3164 5.79998 12.4957 5.82525C13.6724 5.79776 14.8493 5.87068 16.0136 6.04315C16.6747 6.15825 16.7872 6.31979 16.8606 6.42498C17.3453 7.29143 17.7674 8.19136 18.1238 9.11797H6.86521C7.22211 8.19241 7.64423 7.29335 8.12851 6.42756L8.12082 6.43488ZM1.92235 11.5147C1.49185 12.3456 1.27806 13.2718 1.3004 14.2075V19.9509C1.30109 20.3986 1.47937 20.8279 1.79597 21.1445C2.11256 21.4611 2.54185 21.6394 2.98963 21.6399H4.53931C4.98705 21.6394 5.41634 21.4611 5.73297 21.1445C6.04974 20.8279 6.22784 20.3986 6.22853 19.9509V19.5395H18.7627V19.9509C18.7634 20.3986 18.9415 20.8279 19.2583 21.1445C19.5749 21.4611 20.0042 21.6394 20.452 21.6399H22.0041C22.4518 21.6394 22.8811 21.4611 23.1977 21.1445C23.5145 20.8279 23.6926 20.3986 23.6933 19.9509V14.2223C23.7151 13.2869 23.5013 12.3608 23.0715 11.5295C23.4655 11.4611 23.823 11.2568 24.0824 10.9523C24.3417 10.6479 24.4863 10.2623 24.4912 9.86234V8.98103C24.4808 8.54882 24.3048 8.13727 23.9996 7.83108C23.6943 7.5249 23.2833 7.34763 22.8511 7.33587H22.3859C21.9907 7.34406 21.6045 7.45455 21.2648 7.65656C20.8486 6.65538 20.1852 5.14478 19.7103 4.45932C18.8046 3.15947 17.5071 2.79947 16.6184 2.64288H16.6182C15.2547 2.43062 13.8753 2.33806 12.4956 2.36624C11.1194 2.33619 9.74323 2.42618 8.38293 2.63554C7.48933 2.7923 6.19442 3.14972 5.2885 4.45198C4.81361 5.13744 4.15018 6.65517 3.73401 7.64922H3.73384C3.39248 7.44687 3.00448 7.33638 2.6078 7.32853H2.14997C1.71486 7.33792 1.30022 7.51517 0.992677 7.82304C0.685303 8.1311 0.508743 8.54588 0.5 8.98099V9.8623C0.508368 10.26 0.654885 10.6424 0.914448 10.9439C1.17384 11.2453 1.53023 11.4472 1.92232 11.5148L1.92235 11.5147ZM1.4792 9.01757C1.4792 8.8328 1.55229 8.65538 1.68258 8.52424C1.8127 8.39309 1.98961 8.31881 2.17438 8.31744H2.59549C2.98056 8.33862 3.34294 8.50596 3.609 8.78498C3.72682 8.89512 3.89144 8.94038 4.04887 8.90554C4.20648 8.87088 4.33677 8.76073 4.3974 8.61114C5.08046 6.91457 5.7292 5.53875 6.08898 5.02216C6.77681 4.04301 7.76352 3.74911 8.53707 3.61197V3.61214C9.84208 3.41661 11.1617 3.33465 12.4809 3.36743C13.8001 3.33465 15.1197 3.41661 16.4247 3.61214C17.2082 3.74927 18.1947 4.03325 18.8728 5.02233C19.2326 5.54128 19.8813 6.91474 20.5644 8.61131V8.61114C20.625 8.76073 20.7553 8.87087 20.9129 8.90554C21.0704 8.94038 21.235 8.89512 21.3528 8.78498C21.6168 8.50732 21.9764 8.3403 22.359 8.31744H22.7874C22.9773 8.31078 23.1617 8.38165 23.2984 8.51365C23.435 8.64565 23.5122 8.82752 23.512 9.01756V9.84012C23.512 10.035 23.4346 10.2218 23.2968 10.3594C23.1592 10.4972 22.9724 10.5746 22.7775 10.5746H22.1998C22.0144 10.5746 21.8448 10.6793 21.7618 10.8452C21.679 11.0111 21.6969 11.2095 21.8081 11.3579C21.8636 11.4313 21.9167 11.5056 21.9672 11.5808C22.4771 12.3624 22.7336 13.2823 22.7017 14.2148V19.9508C22.7017 20.139 22.6269 20.3196 22.4937 20.4526C22.3605 20.5858 22.18 20.6606 21.9917 20.6606H20.4519C20.2635 20.6606 20.083 20.5858 19.9498 20.4526C19.8168 20.3196 19.742 20.1389 19.742 19.9508V19.0498C19.742 18.92 19.6903 18.7954 19.5986 18.7037C19.5067 18.6118 19.3822 18.5602 19.2523 18.5602H5.73881C5.46832 18.5602 5.24906 18.7793 5.24906 19.0498V19.9508C5.24906 20.1389 5.17426 20.3196 5.04124 20.4526C4.90804 20.5858 4.72754 20.6606 4.53921 20.6606H2.98471C2.79636 20.6606 2.61586 20.5858 2.48268 20.4526C2.34948 20.3196 2.27469 20.1389 2.27469 19.9508V14.2074C2.24429 13.2781 2.50078 12.3617 3.00916 11.5831C3.0597 11.5079 3.11281 11.4338 3.16831 11.3602V11.3604C3.27948 11.212 3.29741 11.0134 3.21459 10.8476C3.1316 10.6818 2.96203 10.5769 2.77656 10.5769H2.70808L2.21357 10.5696C2.01872 10.5696 1.8319 10.4922 1.69427 10.3544C1.55646 10.2168 1.4791 10.03 1.4791 9.83512V9.01751L1.4792 9.01757Z" fill="#333333"/>
<path d="M5.79518 15.3116H7.99854C8.46561 15.3145 8.90447 15.0877 9.1724 14.705C9.44033 14.3224 9.50317 13.8326 9.34078 13.3946C9.17821 12.9565 8.81107 12.6263 8.35835 12.511L6.15516 11.9357C5.72842 11.8232 5.27385 11.9152 4.92447 12.1845C4.57492 12.454 4.37033 12.8704 4.37051 13.3114V13.8867C4.37051 14.2646 4.52061 14.627 4.78786 14.8942C5.05493 15.1615 5.41745 15.3116 5.7952 15.3116L5.79518 15.3116ZM5.35203 13.3114H5.3522C5.3522 13.1741 5.4159 13.0445 5.52467 12.9607C5.63345 12.8768 5.77502 12.8481 5.90787 12.8832L8.11106 13.4585C8.33135 13.511 8.4765 13.7213 8.44764 13.946C8.41861 14.1705 8.22496 14.3372 7.99854 14.3324H5.79518C5.55116 14.331 5.35343 14.1335 5.35221 13.8893L5.35203 13.3114ZM18.8362 11.9357L16.633 12.511C16.18 12.6263 15.8126 12.9569 15.6503 13.3953C15.488 13.8336 15.5514 14.3239 15.82 14.7064C16.0884 15.0891 16.5278 15.3152 16.9954 15.3116H19.1986C19.5756 15.3109 19.937 15.1608 20.2035 14.8943C20.4703 14.6277 20.6202 14.2664 20.6209 13.8893V13.3114C20.621 12.8703 20.4165 12.454 20.0669 12.1846C19.7175 11.9153 19.2629 11.8232 18.8362 11.9358L18.8362 11.9357ZM19.4678 12.9615V12.9614C19.5778 13.0452 19.6422 13.1757 19.6417 13.314V13.8893C19.6403 14.1335 19.4427 14.331 19.1985 14.3324H16.9953C16.7689 14.3372 16.5751 14.1706 16.5462 13.946C16.5172 13.7213 16.6624 13.5111 16.8827 13.4585L19.0858 12.8832H19.086C19.1227 12.8734 19.1605 12.8685 19.1985 12.8685C19.2961 12.8688 19.3908 12.9014 19.4678 12.9614L19.4678 12.9615ZM6.13057 10.107H18.8606C19.023 10.1072 19.1748 10.0268 19.2662 9.89236C19.3574 9.75797 19.376 9.58703 19.3159 9.43623C18.9021 8.39098 18.0918 6.46185 17.6757 5.86692C17.377 5.43847 16.9412 5.21083 16.192 5.07868V5.07851C14.9689 4.89511 13.7321 4.81723 12.4955 4.8461C11.2622 4.81724 10.0288 4.89408 8.80864 5.07612C8.05214 5.20829 7.62373 5.43592 7.32502 5.86694C6.91125 6.46186 6.10097 8.39083 5.6848 9.43625C5.62537 9.5855 5.64296 9.75438 5.73176 9.88827C5.82073 10.0221 5.96963 10.1039 6.13032 10.107L6.13057 10.107ZM8.12082 6.43488C8.19425 6.32713 8.30695 6.16558 8.97039 6.05049C10.1369 5.87529 11.3164 5.79998 12.4957 5.82525C13.6724 5.79776 14.8493 5.87068 16.0136 6.04315C16.6747 6.15825 16.7872 6.31979 16.8606 6.42498C17.3453 7.29143 17.7674 8.19136 18.1238 9.11797H6.86521C7.22211 8.19241 7.64423 7.29335 8.12851 6.42756L8.12082 6.43488ZM1.92235 11.5147C1.49185 12.3456 1.27806 13.2718 1.3004 14.2075V19.9509C1.30109 20.3986 1.47937 20.8279 1.79597 21.1445C2.11256 21.4611 2.54185 21.6394 2.98963 21.6399H4.53931C4.98705 21.6394 5.41634 21.4611 5.73297 21.1445C6.04974 20.8279 6.22784 20.3986 6.22853 19.9509V19.5395H18.7627V19.9509C18.7634 20.3986 18.9415 20.8279 19.2583 21.1445C19.5749 21.4611 20.0042 21.6394 20.452 21.6399H22.0041C22.4518 21.6394 22.8811 21.4611 23.1977 21.1445C23.5145 20.8279 23.6926 20.3986 23.6933 19.9509V14.2223C23.7151 13.2869 23.5013 12.3608 23.0715 11.5295C23.4655 11.4611 23.823 11.2568 24.0824 10.9523C24.3417 10.6479 24.4863 10.2623 24.4912 9.86234V8.98103C24.4808 8.54882 24.3048 8.13727 23.9996 7.83108C23.6943 7.5249 23.2833 7.34763 22.8511 7.33587H22.3859C21.9907 7.34406 21.6045 7.45455 21.2648 7.65656C20.8486 6.65538 20.1852 5.14478 19.7103 4.45932C18.8046 3.15947 17.5071 2.79947 16.6184 2.64288H16.6182C15.2547 2.43062 13.8753 2.33806 12.4956 2.36624C11.1194 2.33619 9.74323 2.42618 8.38293 2.63554C7.48933 2.7923 6.19442 3.14972 5.2885 4.45198C4.81361 5.13744 4.15018 6.65517 3.73401 7.64922H3.73384C3.39248 7.44687 3.00448 7.33638 2.6078 7.32853H2.14997C1.71486 7.33792 1.30022 7.51517 0.992677 7.82304C0.685303 8.1311 0.508743 8.54588 0.5 8.98099V9.8623C0.508368 10.26 0.654885 10.6424 0.914448 10.9439C1.17384 11.2453 1.53023 11.4472 1.92232 11.5148L1.92235 11.5147ZM1.4792 9.01757C1.4792 8.8328 1.55229 8.65538 1.68258 8.52424C1.8127 8.39309 1.98961 8.31881 2.17438 8.31744H2.59549C2.98056 8.33862 3.34294 8.50596 3.609 8.78498C3.72682 8.89512 3.89144 8.94038 4.04887 8.90554C4.20648 8.87088 4.33677 8.76073 4.3974 8.61114C5.08046 6.91457 5.7292 5.53875 6.08898 5.02216C6.77681 4.04301 7.76352 3.74911 8.53707 3.61197V3.61214C9.84208 3.41661 11.1617 3.33465 12.4809 3.36743C13.8001 3.33465 15.1197 3.41661 16.4247 3.61214C17.2082 3.74927 18.1947 4.03325 18.8728 5.02233C19.2326 5.54128 19.8813 6.91474 20.5644 8.61131V8.61114C20.625 8.76073 20.7553 8.87087 20.9129 8.90554C21.0704 8.94038 21.235 8.89512 21.3528 8.78498C21.6168 8.50732 21.9764 8.3403 22.359 8.31744H22.7874C22.9773 8.31078 23.1617 8.38165 23.2984 8.51365C23.435 8.64565 23.5122 8.82752 23.512 9.01756V9.84012C23.512 10.035 23.4346 10.2218 23.2968 10.3594C23.1592 10.4972 22.9724 10.5746 22.7775 10.5746H22.1998C22.0144 10.5746 21.8448 10.6793 21.7618 10.8452C21.679 11.0111 21.6969 11.2095 21.8081 11.3579C21.8636 11.4313 21.9167 11.5056 21.9672 11.5808C22.4771 12.3624 22.7336 13.2823 22.7017 14.2148V19.9508C22.7017 20.139 22.6269 20.3196 22.4937 20.4526C22.3605 20.5858 22.18 20.6606 21.9917 20.6606H20.4519C20.2635 20.6606 20.083 20.5858 19.9498 20.4526C19.8168 20.3196 19.742 20.1389 19.742 19.9508V19.0498C19.742 18.92 19.6903 18.7954 19.5986 18.7037C19.5067 18.6118 19.3822 18.5602 19.2523 18.5602H5.73881C5.46832 18.5602 5.24906 18.7793 5.24906 19.0498V19.9508C5.24906 20.1389 5.17426 20.3196 5.04124 20.4526C4.90804 20.5858 4.72754 20.6606 4.53921 20.6606H2.98471C2.79636 20.6606 2.61586 20.5858 2.48268 20.4526C2.34948 20.3196 2.27469 20.1389 2.27469 19.9508V14.2074C2.24429 13.2781 2.50078 12.3617 3.00916 11.5831C3.0597 11.5079 3.11281 11.4338 3.16831 11.3602V11.3604C3.27948 11.212 3.29741 11.0134 3.21459 10.8476C3.1316 10.6818 2.96203 10.5769 2.77656 10.5769H2.70808L2.21357 10.5696C2.01872 10.5696 1.8319 10.4922 1.69427 10.3544C1.55646 10.2168 1.4791 10.03 1.4791 9.83512V9.01751L1.4792 9.01757Z" stroke="#333333" stroke-width="0.2" mask="url(#path-1-outside-1_3399_48295)"/>
</g>
<defs>
<clipPath id="clip0_3399_48295">
<rect width="24" height="24" fill="white" transform="translate(0.5)"/>
</clipPath>
</defs>
</svg>
