<svg width="32" height="32" viewBox="0 0 32 32" fill="none" xmlns="http://www.w3.org/2000/svg">
<circle cx="16" cy="16" r="15.5" fill="white" stroke="#3C91DE"/>
<path d="M16.0001 18.4001C17.3256 18.4001 18.4001 17.3256 18.4001 16.0001C18.4001 14.6746 17.3256 13.6001 16.0001 13.6001C14.6746 13.6001 13.6001 14.6746 13.6001 16.0001C13.6001 17.3256 14.6746 18.4001 16.0001 18.4001Z" fill="#3C91DE"/>
<path d="M13.75 8.5L12.3775 10H10C9.175 10 8.5 10.675 8.5 11.5V20.5C8.5 21.325 9.175 22 10 22H22C22.825 22 23.5 21.325 23.5 20.5V11.5C23.5 10.675 22.825 10 22 10H19.6225L18.25 8.5H13.75ZM16 19.75C13.93 19.75 12.25 18.07 12.25 16C12.25 13.93 13.93 12.25 16 12.25C18.07 12.25 19.75 13.93 19.75 16C19.75 18.07 18.07 19.75 16 19.75Z" fill="#3C91DE"/>
</svg>
