<svg width="24" height="24" viewBox="0 0 24 24" fill="none" xmlns="http://www.w3.org/2000/svg">
<path d="M20.6195 1.08044H3.40847C2.64799 1.08121 1.91884 1.38375 1.38117 1.92157C0.843297 2.45924 0.540777 3.1884 0.540039 3.94888V20.0127C0.540807 20.7731 0.843155 21.5023 1.38102 22.0401C1.91889 22.5778 2.64804 22.8803 3.40847 22.8811H20.6195C21.38 22.8803 22.1091 22.5778 22.6469 22.0401C23.1848 21.5022 23.4871 20.7731 23.4879 20.0127V3.94888C23.4871 3.1884 23.1846 2.45924 22.6468 1.92157C22.1091 1.3837 21.38 1.08118 20.6195 1.08044ZM22.3406 20.0126C22.34 20.4688 22.1587 20.9063 21.836 21.2288C21.5132 21.5515 21.0759 21.7331 20.6195 21.7337H3.40847C2.95208 21.7331 2.51468 21.5516 2.192 21.2288C1.86929 20.9063 1.68796 20.4687 1.68737 20.0126V3.94878C1.68795 3.49239 1.86928 3.05499 2.192 2.73231C2.51472 2.40963 2.95209 2.22827 3.40847 2.22768H20.6195C21.0759 2.22826 21.5133 2.40959 21.836 2.73231C22.1586 3.05503 22.34 3.4924 22.3406 3.94878V20.0126Z" fill="#333333"/>
<path d="M17.7514 11.4071V7.85928C18.2658 7.67719 18.6636 7.26206 18.8234 6.74017C18.983 6.21848 18.8858 5.6518 18.5612 5.21307C18.2368 4.77415 17.7233 4.51538 17.1776 4.51538C16.6319 4.51538 16.1184 4.77412 15.794 5.21307C15.4694 5.65179 15.3722 6.21843 15.5318 6.74017C15.6916 7.26206 16.0894 7.67719 16.6038 7.85928V10.4071C16.6038 10.9594 16.1561 11.4071 15.6038 11.4071H12.0143V7.85928C12.5289 7.67719 12.9265 7.26206 13.0864 6.74017C13.2462 6.21848 13.1488 5.6518 12.8243 5.21307C12.4997 4.77415 11.9863 4.51538 11.4405 4.51538C10.8948 4.51538 10.3814 4.77412 10.0569 5.21307C9.73228 5.65179 9.63509 6.21843 9.79491 6.74017C9.95453 7.26206 10.3523 7.67719 10.867 7.85928V11.4071H6.85098C6.32624 11.4071 6.27722 11.3595 6.27722 10.8333V7.85928C6.79183 7.67719 7.18965 7.26206 7.34927 6.74017C7.50909 6.21848 7.41189 5.6518 7.08727 5.21307C6.76283 4.77415 6.24939 4.51538 5.70365 4.51538C5.15791 4.51538 4.64448 4.77412 4.31984 5.21307C3.9954 5.65179 3.89801 6.21843 4.05783 6.74017C4.21765 7.26206 4.61527 7.67719 5.12988 7.85928V10.8333C5.13046 11.2897 5.31178 11.7271 5.63451 12.0498C5.95723 12.3725 6.39459 12.5539 6.85098 12.5544H10.8669V16.1023C10.3523 16.2842 9.95452 16.6993 9.7949 17.2212C9.63508 17.7431 9.73228 18.3098 10.0569 18.7485C10.3813 19.1872 10.8948 19.4462 11.4405 19.4462C11.9863 19.4462 12.4997 19.1872 12.8243 18.7485C13.1488 18.3098 13.2462 17.7431 13.0863 17.2212C12.9265 16.6993 12.5289 16.2842 12.0143 16.1023V12.5544H15.6038C16.1561 12.5544 16.6038 13.0022 16.6038 13.5544V16.1023C16.0894 16.2842 15.6916 16.6993 15.5318 17.2212C15.3722 17.7431 15.4694 18.3098 15.794 18.7485C16.1184 19.1872 16.6319 19.4462 17.1776 19.4462C17.7233 19.4462 18.2368 19.1872 18.5612 18.7485C18.8858 18.3098 18.983 17.7431 18.8234 17.2212C18.6636 16.6993 18.2658 16.2842 17.7514 16.1023L17.7514 11.4071ZM17.1776 5.66994C17.4096 5.66994 17.6188 5.80979 17.7076 6.02415C17.7965 6.23852 17.7473 6.48516 17.5833 6.6494C17.4192 6.81344 17.1724 6.86243 16.958 6.77368C16.7437 6.68494 16.6038 6.47575 16.6038 6.24373C16.604 5.92698 16.8609 5.67014 17.1776 5.66994ZM11.4404 5.66994C11.6725 5.66994 11.8817 5.80979 11.9706 6.02415C12.0593 6.23852 12.0102 6.48516 11.8461 6.6494C11.6821 6.81344 11.4352 6.86243 11.2209 6.77368C11.0065 6.68494 10.8668 6.47575 10.8668 6.24373C10.867 5.92698 11.1237 5.67014 11.4404 5.66994ZM5.70327 5.66994C5.93531 5.66994 6.14469 5.80979 6.23341 6.02415C6.32216 6.23852 6.27318 6.48516 6.10914 6.6494C5.9449 6.81344 5.69826 6.86243 5.48389 6.77368C5.26951 6.68494 5.12968 6.47575 5.12968 6.24373C5.12987 5.92698 5.38652 5.67014 5.70327 5.66994ZM11.4404 18.2915C11.2084 18.2915 10.9992 18.1517 10.9105 17.9373C10.8217 17.7229 10.8707 17.4761 11.0348 17.3121C11.199 17.148 11.4456 17.0988 11.66 17.1878C11.8744 17.2765 12.0142 17.4857 12.0142 17.7177C12.0138 18.0345 11.7572 18.2911 11.4404 18.2915ZM17.1776 18.2915C16.9456 18.2915 16.7364 18.1517 16.6477 17.9373C16.5587 17.7229 16.6079 17.4761 16.7719 17.3121C16.936 17.148 17.1828 17.0988 17.3972 17.1878C17.6116 17.2765 17.7514 17.4857 17.7514 17.7177C17.751 18.0345 17.4944 18.2911 17.1776 18.2915Z" fill="#333333"/>
</svg>
